<?xml version="1.0" encoding="UTF-8"?>
<svg id="Layer_4" data-name="Layer 4" xmlns="http://www.w3.org/2000/svg" viewBox="0 0 714.09 290.06">
  <defs>
    <style>
      .cls-1 {
        fill: #f24e07;
      }

      .cls-2 {
        fill: #f8f5e6;
      }
    </style>
  </defs>
  <g>
    <path class="cls-2" d="M289.35,40.36c-2.71-8.37-7.46-16.64-14.52-25.31-.11-.14-.23-.27-.35-.39-9.87-9.73-22.69-14.66-38.1-14.66-3.07,0-6.28.19-9.56.59-26.32,3.14-46.92,21.43-53.77,47.73-.4,1.54-.75,3.1-1.05,4.68-.44,2.41-1.55,10.75,2.7,16.55.3.41.62.8.96,1.16-1.22-.21-2.46-.32-3.71-.32-3.7,0-7.23.98-10.2,2.83-3.84,2.39-6.71,6.12-8.05,10.42-1.45-2.5-3.22-4.78-5.35-6.73-3.02-2.74-6.51-4.2-10.1-4.2-2.37,0-4.7.6-6.98,1.79-.16-.25-.33-.5-.51-.75-.23-.32-.43-.61-.6-.85-1.44-2.07-2.09-2.78-4.64-4.52-1.22-.83-2.4-1.49-3.54-2.12-1.84-1.02-3.43-1.91-4.49-3.19-2.17-2.64-4.75-7.36-6.83-11.15-.85-1.56-1.66-3.03-2.41-4.31-.87-1.5-1.91-3.04-3.27-4.84-.11-.15-.28-.43-.45-.7-.88-1.44-2.36-3.84-5.46-4.65-.21-.06-.43-.13-.64-.19-.85-.26-2.02-.63-3.39-.67-.12,0-.24,0-.35,0-2,0-3.94.58-5.59,1.68-2.87,1.9-4.5,4.94-4.37,8.12.13,3.1,1.79,5.72,3.13,7.83.31.49.61.97.82,1.34,1.71,3.04,3.16,5.52,4.58,7.83.39.63.77,1.25,1.15,1.85,2.57,4.1,4.28,6.8,4.11,10.8-.06,1.46.15,4.3.51,5.91,1.53,6.73,4.8,12.51,7.96,18.09.94,1.67,1.83,3.25,2.69,4.86,4.53,8.55,8.39,15.72,12.56,22.93.5.86,1.01,1.73,1.52,2.59,1.14,1.92,2.21,3.72,3.17,5.58.5.97,1.02,1.93,1.53,2.85.24.44.48.87.72,1.31.06.12.13.23.19.34-.55,2.79-1.08,5.66-1.27,8.49-.05.73-.07,1.72-.1,2.79-.26-.05-1.76-.37-1.76-.37-.46-.09-.87-.21-1.23-.33.22-6.5-.48-18.88-8.03-26.64-4.16-4.28-9.72-6.94-14.51-6.94-3.86,0-6.81,1.81-7.91,4.83-.07.18-.13.37-.17.56-.16.73-.25,1.49-.34,2.46-.18,1.79-.44,4.25-1.36,6.63-.37.97-.8,1.98-1.24,3-1.07-1.97-2.69-3.29-3.96-4.33-.59-.48-1.14-.93-1.49-1.31-1.68-1.86-14-18.01-18.42-28.62-.1-.56-.25-1.93-.36-2.96-.41-3.79-.78-6.85-1.54-8.92-1.77-4.83-7.64-7.04-12.35-7.04-1.12,0-2.22.12-3.24.35-4.6,1.04-8.44,4.3-10.74,7.58-.63-.06-1.3-.09-2-.09-5.07,0-12.2,1.68-15.89,5.36-3.02,3.02-5.3,7.22-6.46,10.81-3.75.61-7.09,2.14-10.35,5.79-4.44,4.99-6.55,13.58-2.4,19.32,2.09,2.89,5.75,4.8,9.98,7.02,3.35,1.75,7.14,3.73,9.11,5.87,4.18,4.54,13.37,16.98,17.13,22.45.2.48.41.95.63,1.38-.58-.22-1.18-.44-1.82-.65l-.44-.14c-1.15-.37-2.34-.76-3.75-.76-2.04,0-4.87.83-6.76,4.78-.03.06-.06.13-.09.19-3.79,8.9-.03,19.15,5.38,25.36,3.84,4.36,9.2,7.6,15.95,9.64,0,.83-.32,2.37-.51,3.26-.09.44-.18.86-.25,1.24l-.91,4.52c-.5,2.5-1,4.99-1.51,7.49-.32,1.47-.66,2.55-1.1,3.49-1.31,2.56-1.44,4.85-.38,6.8.94,1.72,2.66,2.82,4.75,3.02.06,0,.13,0,.19.01.21,0,.42.01.64.01.27,0,.53,0,.79-.02-.43,1.24-.39,2.52.11,3.84.16.42.36.81.63,1.16,1.53,2.09,3.81,2.61,5.03,2.9.15.03.29.06.41.1.06.01.13.03.19.05,1.44.35,2.95.7,4.53.89-.05.76.06,1.57.43,2.44,1.38,3.36,5.22,3.7,7.07,3.86h.16c.96.11,2.03.16,3.19.16,3.3,0,8.08-.44,11.61-1.66.74-.26,1.44-.54,2.11-.83,1.57,2.87,3.25,5.77,5.21,8.6,2.58,3.75,5.64,7.09,8.56,10.19.06.06.13.13.19.19,14.71,13.98,37.67,22.33,61.41,22.33h.41c.09,0,.18,0,.28,0,19.17-1.16,35.38-4.5,49.51-10.2,28.81-11.44,52.02-29.96,65.35-52.14,7.99-12.98,11.21-27.43,13.12-38.57.02-.15.04-.31.06-.46.38-5.19.44-10.74.18-16.96,0-7.87-.84-15.71-1.65-23.3-.85-7.95-1.72-16.16-1.59-24.13v-.08c0-11.83,1.99-23.85,3.91-35.48,1.38-8.36,2.81-17,3.53-25.67.01-.2.02-.4.01-.6-.31-7.58-1.64-15.22-3.88-22.11ZM264.66,68.91c-.82,7.43-3.12,14.57-5.55,22.13-2.98,9.26-6.05,18.8-6.28,29.11-2.61-2.59-5-5.38-6.38-8.46-1.06-2.37-1.32-5.04-.85-8.66l.07-.55c.71-5.41,1.52-11.55-.82-17.73-3.21-8.48-12.11-11.5-19.38-11.5-1.47,0-2.94.12-4.34.36-5.83.98-10.73,4.26-14.18,9.49-4.51,6.83-6.12,16.7-4.08,25.14.42,1.76,1.18,3.82,2.14,6.01-.07-.05-.14-.11-.2-.17-3.25-2.74-6.32-5.33-9.13-8.21-2.54-2.59-3.72-4.74-3.86-6.99-.09-1.42.05-2.99.2-4.66.3-3.24.63-6.91-.64-10.74-1.06-3.22-3.2-6.16-6.17-8.52-.12-.1-.25-.19-.37-.29h.07c5.14,0,10.06-3.38,13.16-9.02,1.86-3.26,3.21-6.67,4.52-9.97.89-2.25,1.74-4.36,2.71-6.38,2.59-4.91,5.94-9.9,10.23-15.28,5.39-6.27,11.46-9.45,18.04-9.45.94,0,1.9.06,2.86.19,6.09.82,11.85,3.67,17.96,6.68.8.4,1.6.79,2.4,1.18,4.84,4.46,7.17,13.58,7.74,20.77.39,5,.73,10.32.16,15.51Z"/>
    <g>
      <path class="cls-1" d="M88.77,142.85s-.04-.03,0,0c0,0,0,0,0,0Z"/>
      <path class="cls-1" d="M265.2,197.5c-7.21.34-13.76,4.41-20.8,5.35-3.36.4-6.7-.32-10.04-.58-1.7-.05-6.43-.5-6.98,1.12-.1.62.81,1.54,1.99,2.7,1.86,1.73,3.4,3.9,5.59,5.24,3.9,2.21,9.55,2.08,13.87.59,3.5-1.3,6.3-4.05,9.24-6.36,1.87-1.49,3.87-2.8,5.98-3.9,1.16-.62,2.55-1.25,3.52-2.01.58-.46.9-.89.88-1.24v-.04c-.16-.89-2.23-.93-3.24-.88Z"/>
      <path class="cls-1" d="M268.25,171.17c-1.86,0-3.74.54-5.41,1.51-5.46,3.07-7.81,9.51-11.74,14l-.07.08c-1.45,1.81-4.64,4.06-5.11,6.06-.19,2.19,3.21,1.54,4.68,1.15,6.76-1.82,12.38-6.28,16.07-12.02,1.46-2.35,3.9-4.93,5.13-7.16,1.3-2.48-.88-3.68-3.57-3.61Z"/>
      <path class="cls-1" d="M232.24,239.84c-1.38,2.76.97,6.71,3.22,8.33,2.78,1.67,5.39,2.18,8.44,1.35,1.46-.82,4.12-2.91,4.01-5.06-1.16-2.28-2.28-3.02-4.41-4.41-2.84-1.69-9.19-4.38-11.26-.22Z"/>
      <path class="cls-1" d="M109.98,231.25s0,0,.01,0c.26-.19.24-.59.17-.91-.27-1.36-.73-2.63-1.27-3.9-.29-.66-.51-1.39-.36-2.1.32-1.45,1.73-2.76,3.1-3.18.86-.26,1.76-.35,2.6-.64.8-.28,1.55-.76,2.08-1.43.85-1.09.43-2.24.89-3.42.35-.89,1.3-1.47,2.26-1.51,1.71-.08,2.77.72,3.99,1.7.55.44,2.01,1.61,2.78,1.17.8-.46.22-2.37.08-3.03-.19-.87-.65-1.33-.48-2.24.17-.9,1.15-1.35,1.74-2.02,1.84-2.09,2.26-5.65,2.13-8.32-.09-1.86-1.41-6.96-4.23-5.28-1.11.66-1.13,2.38-.95,3.48.14.86.4,1.68.56,2.54.69,3.77-1.62,8.99-5.39,10.4-1.01.38-2.11.43-3.19.4-1.4-.05-2.82-.25-4.08-.85-1.88-.89-3.18-2.46-2.67-4.57.55-2.31.1-4.62-.81-6.79-.55-1.31-1.47-2.82-3.09-2.61-.93.12-1.66.8-2.12,1.58-.46.86-.88,1.68-1.54,2.26-1.18,1.07-3.13,1.44-4.02,2.86-1.72,3.56,3.26,5.33,5.87,5.78.76.13,1.5.13,2.26.18,1.64.12,2.34,2.32,2.69,3.63.54,2,.59,3.98-.37,5.88-1.28,2.53-4.26,4.31-7,4.78-3.18.54-6.31-.69-8.76-2.68-.62-.72-1.47-2.64-2.4-2.94-.94-.31-1.62.34-1.49,1.17.15.99,1.5,2.5,2.1,3.29,1.54,2.04,3.54,3.84,6.07,4.48,1.89.48,3.88.27,5.8-.09.35-.07.7-.14,1.05-.07.42.08.78.36,1.13.61,1.26.92,2.62,1.7,4.05,2.32.26.11.56.21.8.06ZM114.2,216.01c.64.46.52,1.82-.25,2.27-.61.43-1.52.08-1.68-.65l-.02-.09c-.25-1.01,1-2.21,1.95-1.53Z"/>
      <path class="cls-1" d="M116.96,167.01s0,0,0,.02c0,.03,0,.05.01.08,0,.05.02.1.03.16,2.11,1.92,5.01,2.6,7.45,3.93,2.08,1.03,3.88,2.6,5.37,4.42,2.07,2.96,2.94,6.43,2.7,10.01-.17,2.61-1.2,5.13-1.15,7.72,4.67-3.58,4.81-10.4,4.97-15.69-.15-2.76-1.75-4.45-4.04-5.79-1.49-.88-3.06-1.59-4.62-2.34-1.58-.24-3.17-.47-3.92-.65-1.59-.38-3.05-.97-4.85-1.36-.67-.15-1.35-.57-1.96-.64,0,.03,0,.05,0,.08,0,.02,0,.04,0,.06Z"/>
      <path class="cls-1" d="M105.53,184.98c-.04,1.71.52,3.4.66,5.07,0,1.83-.17,3.48,2.12,2.84,1.64-1.54,3.44-2.84,5.25-4.18,4.17-2.79,4.24-8.17,5.68-12.59.19-.57,1.38-4-.17-3.75-.83.33-1.73,1.15-2.55,1.56-6.63,2.06-10.09,3.39-10.98,11.04ZM113.9,179.55l.03.09c.6,1.8-2.3,3.68-3.1,1.53-.56-1.71,2.13-3.65,3.07-1.61Z"/>
      <path class="cls-1" d="M78.58,202.83c-.7.8-7.09,9.25-7.12,9.39.74.3,1.5.56,2.3.57,1.12.07,2.42-.44,3.66-.4,1.02.02,1.94.41,2.92.62,1.07.22,2.16.36,3.25.29,3-.16,5.08-2.46,6.66-4.8.6-.89,1.42-1.59,2.43-1.96,1.1-.48,1.16-1.94.02-2.44-.86-.4-1.87-.01-2.75-.35-2.24-1.16-4.35-2.8-7.02-2.9-1.71-.05-3.24.69-4.36,1.97ZM86.48,204.4l.02.09c.39,1.91-1.96,2.37-2.85.89-1.44-2.65,2.12-3.58,2.83-.98Z"/>
      <path class="cls-1" d="M81.84,226.83c-3.13-1.01-6.23-2.37-9-4.15-3.48-2.24-4.94-6.49-5.46-10.45-.29-2.18-.27-4.39-.08-6.58.1-.82.6-5.18-.75-3.84-.93,1.49-1.14,3.54-1.64,5.13-.94,3.64-1.41,7.61-.18,11.24,1.81,5.13,6.56,8.72,11.53,10.58,2.3.7,4.79.66,7.17.8,1.31.05,2.66.27,3.92.5,4.64-1.46-4.28-2.69-5.51-3.23Z"/>
      <path class="cls-1" d="M73.94,194.66c.21.13.4.27.58.42,1.34.59,2.86,1.09,4.31.93,1.01-.11,2-.77,2.44-1.71.08-.36.12-.74.1-1.15-.01-.23-.04-.45-.09-.67-.22-.48-.58-.91-.94-1.27-1.09-1.09-2.38-2.12-3.83-2.68-.93-.35-3.39-.79-4.33-.43-.01,0-.02,0-.04.01-1.19.45-2.28,1.74-2.28,3.04,0,2.22,2.72,2.68,4.08,3.51Z"/>
      <path class="cls-1" d="M99.2,179.29l.05-.08c1.28-1.72,1.55-5.1.76-7.17-1.29-3.87-4.32-3.2-5.62.18-.66,1.74-.7,3.85-.08,5.62.93,2.86,3.29,3.73,4.88,1.45Z"/>
      <path class="cls-1" d="M59.46,193.34c.17,2.05.56,5.74,1.9,6.67h.03c.85.17,1-1.18,1.16-1.83.41-3.07.39-8.57-1.5-11.07-1.78-1.26-1.71,5.08-1.59,6.23Z"/>
      <path class="cls-1" d="M106.7,160.41c1.33.78,3.66,1.5,4.77.73l.05-.04c.87-.75.03-1.94-.62-2.58-1.52-1.41-4.15-2.78-6.24-2.14-2,1.03.75,3.32,2.04,4.03Z"/>
      <path class="cls-1" d="M99.81,185.35c-.79,1.35,1.75,6.24,3.66,4.67,1.24-1.02.13-5.11-1.16-5.68-.9-.39-2.03.21-2.5,1.01Z"/>
      <path class="cls-1" d="M89.77,200.86c2.57-1.69-2.39-5.26-3.72-2.99-.93,1.58,2.63,3.71,3.72,2.99Z"/>
      <path class="cls-1" d="M117.56,194.56c-1.06,1.47-.8,4.35,1.34,1.91,2.03-2.31-.04-3.71-1.34-1.91Z"/>
      <path class="cls-1" d="M94.36,214.19c.57-.98-3.66-2.96-4.31-1.84-.63,1.07,2.76,2.07,3.47,2.1.37.02.57.15.85-.26Z"/>
      <path class="cls-1" d="M96.43,216.89c.09-1.25-4.67-1.05-4.92-.07v.04c.26,1.04,4.39.93,4.92.03Z"/>
      <path class="cls-1" d="M119.42,206.95c2.05.45,5.55-.82,1.57-1.46-.55-.09-3.11-.28-3.14.48-.01.42,1.13.89,1.57.98Z"/>
      <path class="cls-1" d="M118.86,201.11c.71,1.52,4.11-.06,3.85-1.31-.07-.35-.6-.7-.92-.7-.53,0-2.93,1.71-2.94,2.01Z"/>
      <path class="cls-1" d="M97.66,221.23c1.7.46,2.09-4.48.18-2.69-.64.6-1.38,2.36-.18,2.69Z"/>
      <path class="cls-1" d="M172.46,215.11c.07-5.02-3.29-9.83-6.91-13.18-2.76-2.58-9.06-2.88-8.86,2.09.58,4.46,5.89,7.04,8.17,10.55l.06.08c.8,1.12,1.51,2.35,2.35,3.26,2.84,3.14,5.09.43,5.19-2.8Z"/>
      <path class="cls-1" d="M149.67,235.17c2.75,2.59,7.09,3.72,9.46-.03,2.18-3.43-2.88-8.35-5.75-9.66-2.97-1.35-2.93-.04-4.77,1.72-.52.49-1.19.59-1.67,1.27-1.25,1.79,1.45,5.49,2.74,6.69Z"/>
      <path class="cls-1" d="M183.23,247.77c-3.47,2.55-2.45,10.28-.6,13.87,1.67,3.48,4.75,4.1,5.98.14.98-3,.61-7.95-1.02-11.22-.78-1.59-2.38-3.74-4.3-2.82l-.05.03Z"/>
      <path class="cls-1" d="M195.38,34.22l-.06-.09c-.99-1.52-2.87-1.57-3.53.19-.73,1.66.14,4.19,1.52,4.95,1.75,1.05,3.05-1.07,2.83-2.75-.05-.82-.33-1.66-.77-2.3Z"/>
      <path class="cls-1" d="M77.65,215.79c-.19.35-.4.73-.46,1.13-.03.2,0,.96.4.58.09-.09.13-.21.15-.34.1-.45.11-.93.02-1.39,0-.01,0-.02-.01-.03-.03-.03-.08,0-.1.05Z"/>
      <path class="cls-1" d="M79.06,215.39c-.49.4-.67,1.52-.48,2.15.09.34.35.68.65.41.55-.45.59-2.71-.13-2.58l-.05.03Z"/>
      <path class="cls-1" d="M80.58,215.58c-.08-.01-.19.04-.21.13-.04.19-.07.37-.08.56,0,.04,0,.09,0,.13,0,0,0,.02-.01.03.21,2.36,1.32,1.94.54-.17-.04-.16-.07-.32-.08-.49,0-.09-.06-.17-.15-.19Z"/>
      <path class="cls-1" d="M118.72,185.38c-.03.09,0,.17.06.24l.07.1s.02.06.04.08c.05.1.13.2.23.25.08.04.16.08.24.13.11.06.22.12.35.12.04,0,.09,0,.13,0,.09,0,.17,0,.26-.01.16,0,.3-.08.36-.23.06-.13.04-.31-.07-.42-.06-.06-.12-.12-.18-.17-.03-.03-.06-.06-.09-.09-.36-.34-.8-.24-1.23-.16-.09.02-.16.09-.18.17Z"/>
      <path class="cls-1" d="M119.37,183.17c-.05.13-.03.34.04.46.08.14.18.28.3.39.08.08.17.15.26.22.14.1.33.13.5.13.16,0,.33-.01.49-.05.24-.06.49-.16.61-.39.06-.12.1-.26.07-.4-.04-.14-.12-.26-.24-.34-.11-.07-.22-.11-.36-.12,0,0-.01,0-.02,0-.06-.01-.13-.03-.19-.06-.01,0-.03-.01-.04-.02-.41-.24-.86-.31-1.26-.08-.08.08-.13.17-.17.27Z"/>
      <path class="cls-1" d="M121.35,180.47c-.44-.29-.87-.35-1.45-.06-.09.04-.17.12-.22.21-.06.11-.09.23-.08.35,0,.1.04.19.1.27.07.09.18.2.3.22.1.02.19.04.28.07.06.03.12.06.18.08.09.03.19.04.28.02.08,0,.15-.02.23-.05.09,0,.18,0,.27.02.02,0,.04,0,.06,0,.07,0,.13,0,.2-.04.11-.04.21-.11.27-.21.04-.08.07-.17.08-.26-.06-.26-.25-.48-.49-.64Z"/>
      <path class="cls-1" d="M280.93,124.22c0-20.78,5.73-40.95,7.46-61.56-.28-6.92-1.51-14.21-3.64-20.8-2.85-8.8-7.86-16.61-13.67-23.75-11.96-11.79-27.49-14.64-43.68-12.71-24.81,2.96-43.38,20.06-49.65,44.13-.37,1.43-.7,2.88-.97,4.33-1.09,5.95-.35,14.94,7.23,15.9,4.37.55,7.9-2.93,9.84-6.48,2.92-5.11,4.59-10.9,7.14-16.17,3.03-5.74,6.77-11.11,10.82-16.18,6.51-7.6,15.06-12.35,25.28-10.97,7.96,1.08,15.23,5.12,22.41,8.59,6.52,5.49,9.22,16.27,9.86,24.46.43,5.46.75,10.96.14,16.42-2.02,18.26-12.35,34.73-11.8,53.4.04,1.52.15,3.04.32,4.56.08.73.72,2.95-.15,3.28-.64.24-1.89-1.06-2.33-1.42-1.31-1.07-2.51-2.28-3.75-3.43-3.79-3.51-7.6-7.4-9.74-12.17-1.62-3.63-1.74-7.38-1.23-11.27.7-5.34,1.5-10.71-.48-15.94-2.68-7.07-11.59-9.22-18.38-8.08-12.59,2.12-17,17.75-14.36,28.71,1.45,6.02,7.86,16.89,11.17,22.49,2.71,4.59,5.81,8.87,9.69,12.57-.76-.73-4.91.04-5.86.12-2.52.22-5.02.61-7.49,1.17-.43.1-.9.19-1.29,0-.28-.14-.47-.41-.64-.67-.47-.72-.88-1.49-1.23-2.28.15.34,2.86-.54,3.14-.69.92-.5,1.59-1.25,1.94-2.24.78-2.19-.28-4.71-1.68-6.39-6.43-8.51-15.7-14.29-23.13-21.91-2.74-2.8-5-6.02-5.24-10.08-.3-4.72,1.34-9.55-.19-14.18-.82-2.48-2.52-4.61-4.57-6.24-5-3.96-12.49-4.81-17.9-1.44-3.2,1.99-5.53,5.32-6.31,9-1.31,6.18,2.3,11.98,5.36,17.06,1.43,2.01,7.18,6.93,4.63,9.22-1.43,1.38-5.47,2.58-7.19,4.89-2.42,3.02-3.28,6.96-3.02,10.64-.34-.74-.59-1.52-.86-2.29-.36-.88-1.06-1.61-1.62-2.39-.31-.46-.53-.87-.47-1.43.24-2.41.52-4.84.55-7.26.14-11.07-1.65-26.39-10.3-34.27-4.53-4.12-9.48-3.67-14.01-.09-1.01.8-.99,1.63-1.93.06-.78-1.31-1.45-2.65-2.34-3.9-1.71-2.4-1.58-2.51-4.02-4.18-3.11-2.13-6.58-3.25-9.04-6.24-3.36-4.09-7.04-11.57-9.68-16.09-.88-1.52-1.9-2.96-2.96-4.36-.94-1.25-1.62-3.15-3.27-3.58-.98-.26-1.95-.67-2.98-.71-1.09-.04-2.19.26-3.1.87-1.31.87-2.27,2.25-2.21,3.87.1,2.38,2.2,4.98,3.33,7,1.45,2.58,2.94,5.14,4.48,7.67,3.16,5.16,6.23,9.14,5.97,15.38-.05,1.14.14,3.52.39,4.63,1.8,7.91,6.46,14.69,10.2,21.76,4.05,7.65,8.13,15.26,12.47,22.77,1.61,2.78,3.33,5.52,4.8,8.36.71,1.37,1.47,2.72,2.21,4.08.23.42,1.02,1.39,1.02,1.89-.64,3.26-1.32,6.5-1.52,9.58-.14,2.12-.07,7.75-.34,7.8-1.77.28-4.08-.28-7.34-.95-3.26-.67-5.14-2.19-5.28-2.34-.03-.04,2.16-17.11-6.48-26-5.72-5.88-13.31-6.79-14.39-3.83-.35,1.5-.29,5.56-1.91,9.74-1.46,3.77-4.31,10.09-7.14,13.03,0-.06-.04-.13-.04-.19.12-.93-1.46-2.91-3.06-3.52.33-.72,1.2-2.23.59-4.74-.61-2.51-3.41-3.76-5.18-5.73-2.12-2.36-14.9-19.25-19.41-30.3-.49-1.2-.81-8.94-1.86-11.79-1.04-2.85-6.16-4.48-9.96-3.62-5.14,1.17-9.01,6.52-9.27,8.61-2.66-2.09-13.28-.77-17,2.95-3.72,3.72-5.84,9.43-5.91,11.89-4.58.15-7.55.97-10.71,4.52-2.89,3.25-4.86,9.43-2.09,13.26,2.91,4.03,13.78,7.06,18.73,12.44,4.56,4.96,14.41,18.37,17.85,23.4.22.32,1.76,6.09,7.7,6.4.21,1.28.69,2.26,2.15,2.93-1.62.81-3.32,1.36-5.93,1.45-4.28.14-7.03-1.86-10.86-3.08-2.43-.78-3.77-1.44-5.1,1.35-2.9,6.81-.02,15.01,4.55,20.26,3.65,4.15,8.73,6.73,13.93,8.27,4.71,1.49,3.07,6.42,2.38,10.03-.81,4.01-1.61,8.03-2.42,12.05-.35,1.59-.79,3.15-1.5,4.63-.51.98-1.21,2.69.47,2.85,1.51.08,3-.39,4.52-.23,1.39-.01,2.72-.47,3.95-1.06.58-.28,2.76-2.04,3.25-1.12.18.34,0,.75-.18,1.09-.8,1.53-1.62,2.97-2.67,4.35-.38.4-.76.8-1.16,1.19-.91,1.02-2.33,1.69-1.93,2.74.6.81,1.95.93,2.88,1.2,2.23.54,4.51,1.06,6.81.86,1.66-.13,3.33-.28,4.98-.46,2.35,1.73-4.15,4.24-3.51,5.8.29.71,2.7.83,3.27.89,3.55.38,9.35-.11,12.7-1.27,2-.69,3.89-1.74,5.91-2.4,2.17,4.1,4.33,8.15,6.99,12,2.36,3.43,5.18,6.52,8.1,9.62,15.1,14.35,37.93,21.08,58.46,20.99,16.39-.99,32.73-3.7,48.01-9.87,25.05-9.95,49.09-26.99,63-50.15,6.9-11.2,10.27-23.99,12.48-36.87.41-5.49.4-11,.17-16.5,0-15.89-3.5-31.69-3.23-47.61ZM181.69,66.58c-4.81-2.54-5.79-10.45.32-11.84,4.12-.91,9.54,2.21,9.72,6.6v.09c.21,4.94-6.1,7.57-10.04,5.15ZM197.9,49.2l-.06.07c-1.31,1.51-3.36,1.3-4.9.28-5.58-3.53-8.52-11.6-5.69-17.8.99-2.11,3.32-3.93,5.7-3.65,3.77.7,4.89,5.69,6.16,8.96.63,2.02,1.48,3.41,1.55,5.33-.02,2.28-1.27,4.91-2.75,6.81ZM284.84,71.6c.02,3.73-.21,7.42-1.43,9.98l-.03.06c-3.13,5.45-7.96-6.08-9.13-9.21-1.7-4.48-4.81-15.48.06-17.89,2.26-.65,4.48,1.26,6.03,3.15,3.02,3.82,4.44,9.04,4.51,13.89ZM216.23,21.96v.09c-.31,1.8-4.08,6.45-5.99,6.68-1.53-.06-1.55-1.95-2.38-3.48-.9-1.9-2.14-3.6-3.35-5.3-.72-1.07-1.62-2.38-1.51-3.67.58-3.16,5.48-3.97,7.98-2.32,1.3.76,2.31,2,3.18,3.22,1.09,1.54,2.34,3.13,2.07,4.79ZM265.91,23.45c-1.63.77-3.13,1.81-4.4,3.09-2.4-2.17-5.43-3.62-8.62-4.12-.55-.09-1.15-.17-1.56-.55-.29-.27-.43-.66-.57-1.03-1.37-3.69-2.3-10.9-6.8-11.91-1.48-.33-3.04,0-4.15,1.07-.51.5-.92,1.14-1.1,1.83-.21.82-.12,1.68-.05,2.51.07.8.14,1.59.33,2.37.12.5.28,1.01.42,1.49-2.75.62-7.1-.7-9.51-2.11-3.5-2.04-5.63-5.75-8.52-8.58,6.57-.97,13.21-1.89,19.84-1.37,6.62.52,13.31,2.6,18.3,6.99-.87.63-1.77,1.31-2.17,2.31-.61,1.51.22,3.32,1.58,4.21,1.36.88,3.11.97,4.71.67,1.52-.29,2.99-.91,4.53-.88,1.54.03,3.25,1.01,3.35,2.55-1.94.12-3.85.62-5.61,1.45ZM270.97,35.58c1.79-1.96,4.32.08,5.68,1.6,3.5,3.85,6.03,8.51,6.87,13.8.08.65.61,3.64-.47,3.12-.6-.32-1.61-2.05-2.67-3.45-1.14-1.53-2.48-2.99-4-4.1-1.68-1.37-4.1-1.8-5.41-3.21l-.05-.06c-1.59-1.73-1.41-6.04.04-7.72ZM266.38,91.25c.33-1.13.69-2.26,1.01-3.38.9-3.04,1.38-8.49,4.25-3.47,2.29,3.75,4.63,7.51,6.88,11.26.65,1.13,1.2,2.31,1.5,3.57.5,1.97.34,4.15.13,6.29-.13.81-.28,4.48-1.3,3.58-.66-.67-1.79-3.66-2.88-5.02-2.61-3.52-6.41-5.9-9.03-9.43-.99-1.38-.64-1.89-.55-3.36,0-.01,0-.03,0-.04ZM260.43,122.41c0-3.75.33-5.1.97-8.74.03-.14.06-.3.09-.47.36-1.59.79-3.16,1.28-4.72.26-.84.54-1.67.82-2.5,2.22,1.71,7.33,6.38,7.96,7.19,3.44,4.69,6.8,10.42,6.49,16.41,0,.86.01,1.73.1,2.59.07,1.65.84,3.52-.1,4.78-1.59,1.16-4.53-2.81-6.05-3.55-1.91-1.37-4.22-2.14-6.14-3.38-1.29-.82-2.51-1.76-3.68-2.73-1.87-1.13-1.74-3-1.75-4.88ZM168.07,103.76c-4.66-4.7-9.28-13.46-6.43-19.61.73-1.49,1.83-2.73,2.94-3.96-.31.56.04,6.25.04,7.03.18,1.01.65,3.56,1.89,2.4.19-4.37-1.28-10.02,3.94-11.91.19-.04,3.41-.78,3.41-.3-.5,2.73-1.13,6.42-.19,8.91,1.67,3.64,1.47-3.35,1.94-4.25,1.35-4.76,6.33-.43,7.72,2.06,1.35,2.19,1.56,4.77,1.72,7.41.29,6.22.45,13.06,4.7,17.94,2.78,3.13,5.77,6.07,8.34,9.39,2.31,2.65,4.37,4.71,5.65,7.78-1.39-.26-2.86-.71-4.29-.49-2.79.63-2.13,3.91-.1,5.09,3.35,2.3,7.31,3.59,11.32,4.25,1.15.22,2.59.22,3.46,1,.61.68-.39,1.26-.99,1.44-2.67.83-5.59.53-8.31,1.09-3.35.09-11.25.87-5.42,5.35,2.03,1.35,3.34,1.7,5.69,2.45.39.16,1.07.24,1.12.72,0,.28-.26.61-.45.87-.79,1-1.63,1.81-2.25,2.72-.33.51-.73,1.07-1.41,1.04-1.56-.06-2.12-.37-3.43-1.14-1.27-.73-2.47-1.58-3.63-2.48-1.81-1.39-3.29-2.11-3.91-4.42-.92-3.45.85-3.03,2.06-5.33,1.07-2.01-.24-4.15-1.09-5.99-.98-2.1-2.14-4.13-3.58-5.96-2.45-3.11-6.08-6.06-10.14-6.53-.15-.02-.29-.01-.44-.02,1.39,2.98,3.34,6.75,3.82,10.13.28,1.39.38,3.52-.1,4.21-1.72-.71-3.42-1.38-4.9-2.57-3.03-2.51-5.23-6.17-6.11-9.93-.56-2.41-.6-6.1,2.25-6.95,1.8-.52,4.41.34,6.83,1.2,2.71.92,5.4,2.06,7.97,3.28.34-.52.6-.94.23-1.76-3.02-3.21-6.72-6.56-10.52-8.58-3.3-1.82-6.63-2.93-9.35-5.59ZM198.61,211.01c1.46,2.46,2.92,4.93,4.38,7.39,1.35,2.28,2.7,4.57,4.16,6.79,1.3,2,2.69,3.95,4.15,5.84.72.94-.63,1.14-1.27,1.43-.83.38-1.48,1.08-1.99,1.84-.5.75-.86,1.61-1.39,2.32-1.4-1.42-2.39-3.78-3.46-5.49-1.26-2.02-2.5-4.05-3.61-6.16-1.01-1.9-1.92-3.92-3.05-5.78-.96-1.58-2.06-3.06-3.51-4.26-1.84-1.52-4.05-2.48-6.08-3.69-2.03-1.22-3.55-2.78-4.96-4.65-2.95-3.94-2.36-9.75-2.58-14.37.24-1.98.63-3.95,1.08-5.87.46-1.93,3.24-4.41,4.88-5.38.65-.39,1.43-.61,2.17-.47.31.06.62.19.83.42.16.17.25.39.34.61,2.18,5.16,4.73,10.14,6.91,15.3.33.78.66,1.56.93,2.35.58,1.68.93,3.43,1.03,5.2.05.97-.25,1.94-.25,2.9,0,1.37.63,2.57,1.31,3.72ZM129.8,86.35c.25-.65.7-1.29,1.12-1.84.88-1.14,2-2.09,3.28-2.75,1.17-.61,2.55-.97,3.96-1.05,2.8-.16,5.73.78,7.32,3.11,1.84,2.68,3.28,5.63,4.47,8.65,1.15,2.92,2.13,5.82,2.42,8.96.46,4.92.64,9.75.59,14.69,0,.49.17,3.05-.5,3.18-.41.08-.85-.99-1-1.26-.58-1.06-1.03-2.2-1.65-3.24-.91-1.53-2.28-2.78-3.69-3.83-3.03-2.27-6.55-3.73-9.89-5.48-.18-.1-.37-.19-.54-.31-1.41-1-3.29-3.54-1.72-5.11.97-.97,2.43-1.35,3.7-1.76,1.78-.58,3.65-.85,5.51-.67-.1-.19-.45-.66-.74-1.05-.89-.41-1.84-.68-2.79-.85-1.92-.35-3.96-.29-5.82.3-.19.06-.34.03-.46-.05-.38.15-.74.33-1.09.53-.99.57-1.29-1.59-1.44-2.12-.11-.41-.22-.84-.13-1.25.1-.45.41-.82.76-1.11.77-.66,1.72-1.07,2.66-1.43.81-.31,1.64-.61,2.51-.6,1.29.02,2.41.73,3.38,1.5.38.31.79.89,1.31.88,2.03-.02-.64-3.13-1.17-3.53-.38-.29-.8-.52-1.22-.75-.28-.16-.56-.31-.85-.44-1.48-.63-3.27-.42-4.82-.21-1.2.16-2.57.35-3.65.93-.02.01.08-1.78.18-2.04ZM123.42,113.15c-5.16-7.66-10.29-15.26-13.9-23.8-1.09-2.59-2.13-5.3-2.73-8.05-.62-2.84-.75-5.42-1.29-8.27-.82-4.39-3.39-8.01-5.34-11.89-1.29-2.56-2.67-5.07-4.04-7.59-.63-1.15-1.17-2.36-1.74-3.54-.54-1.1-1.26-1.94-1.99-2.91-.57-.77-.94-1.87-.39-2.65.26-.36.67-.58,1.08-.76,1.1-.49,2.51-.72,3.67-.21,1.51.65,1.99,2.4,2.78,3.7,1.12,1.82,2.27,3.62,3.38,5.45,1.7,2.81,3.35,5.65,5.02,8.48,1.44,2.44,2.79,5.7,4.89,7.65,2.45,2.28,6.13,3.03,8.8,5.16,1.93,1.54,3.61,3.39,4.94,5.47,1.59,2.48,1.99,4.02,1.08,6.86-.69,2.17-.19,4.02.34,6.2.94,3.88,2.32,7.66,4.1,11.23,1.72,3.45,4.9,5.23,7.74,7.67,4.19,3.59,8.08,7.34,10.59,12.28,1.94,3.82,3.89,7.64,5.83,11.47,1.1,2.16,2.36,4.43,2.6,6.88.27,2.89-.67,5.81-1.32,8.6-.73,3.18-1.21,6.42-1.56,9.66-.26,2.44.84,7.8-1.11,9.56-.37-.19-.54-.47-.73-.83,0-1.11-1.82-3.32-2.37-4.32l-2.56-4.68c-1.52-2.77-3.04-5.54-4.59-8.3-3.53-6.27-6.7-12.74-10-19.13-3.44-6.64-7-13.21-11.16-19.38ZM47.67,166.09c-1.93-1.01-1.21-3.15-2.21-4.51-1-1.36-2.36-3.21-3-4.12-16.48-23.66-18.54-22.83-26.81-26.42-8.43-3.65-8.7-8.52-7.16-11.87,3.17-6.87,9.66-6.16,9.66-6.16,0,0,.16,3.6.36,4.14,3,8.17,20.18,17.35,20.63,16.77.65-.85-8.68-7.17-10.34-8.81-7.6-7.53-8.1-12.95-5.26-19.13s6.38-8.55,12.45-8.59c2.89-.02,5.63,1.14,7.1,3.53,1.52,2.47,10.49,18.15,11.5,17.56,1.01-.6-7.62-15.02-9.04-19.12-1.43-4.1.61-6.64,3.34-8.68,2.73-2.04,8.15-1.95,9.86,2.05,1.38,3.23.58,8.07,1.56,10.73.99,2.66,15.99,25.75,22.55,35.05,1.42,2.23.4,5.19-2.31,7.17-2.71,1.98-6.17,2.18-8.51.21-2.34-1.97-9.19-14.45-10.07-13.91-.88.54,5.47,10.03,5.89,14.67.02.2.56,2.73-1.46,4.6-2.02,1.87-4.7,2.1-5.16,2.12-5.12.29-11.92-10.26-12.98-9.27-1.06.99,8.32,9.28,9.05,15,.24,3.32-1.24,5.52-4.35,7.18-1.09.58-3.49.75-5.28-.19ZM280.28,182.83c-.87,4.72.18,9.31-1.37,14.01-.3.9-.65,1.79-1.04,2.65-3.15,3.25-6.33,6.48-9.55,9.67-9.3,8.7-13.9,14.11,2.7,10.66-1.53,2.78-3.31,5.46-4.97,8.17-3.34.64-6.74.59-10.12.4-3.79-.21-7.65-.47-11.45-.73-1.23-.08-2.42-1.01-3.33.55-.97,1.67,4.04,3.45,5.28,4.1,3.73,1.67,7.66,2.7,11.71,3.33,1.19.19,2.23.67,1.12,2.25-.97,1.36-1.85,1.63-3.11,2.75-1.83,1.57-3.58,3.48-5.56,4.97-.93.68-1.81,1.4-2.7,2.13-1.73,1.53-4.33,5.14-6.49,5.97-4.05,1.55-7.38,1.31-11.1-1.6-4.27-3.12-7.49-7.41-10.41-11.78-.89-1.17-2.9-4.19-3.46-1.38-.29,1.71.03,4,.39,5.83,1.31,7.26,5.1,13.59,9.28,19.52-.2.18-.51.43-.77.49-4.07,2.16-8.28,4.02-12.53,5.88-1.58.69-4.36,1.98-5.21-.25-.44-1.31-.12-2.85-.05-4.22.22-2.87-.31-5.76-1.04-8.55-2.93-8.96-9.46-16.2-14.38-24.08-2.26-3.62-3.94-7.58-5.72-11.43-.46-.94-1.46-1.52-2.16-1.11-.19.65-.42,1.29-.71,1.89.04.79.29,1.6.49,2.34,1.63,5.67,3.75,10.99,6.27,16.36,2.56,5.39,5.01,10.88,5.67,16.87.51,4.94,0,12.5-2.69,16.7-3.08,4.29-9.05,2.09-12.64-.53-5.43-3.74-7.37-10.03-7.74-16.35-.06-4.43.65-8.85,1.58-13.17.23-.95,1.1-2.69.53-3.64-.61-1.03-.79-.86-1.35-.05-3.23,4.68-5.72,14.82-6.42,20.54-.69,5.64-.73,12.25,2.01,17.37-1.08.06-1.5.55-2.64.77-5.72,1.14-12.13.38-17.87-.39-2.72-.37-10.28-1.22-12.43-2.08-4.14-1.66-5.97-6.93-8.16-10.43-.68-1.09-1.29-1.98-1.82-2.86-1.72-2.9-2.92-5.94-3.99-9.14-1.01-2.75-1.67-9.73-6.06-7.94-1.91,1.15-2.51,4.09-2.74,6.13-.3,2.96,1.29,5.98,1.16,9.02,0,1.58-.28,3.61-1.87,4.37-1.59.37-2.86-2-3.44-3.12-1.64-3.3-2.32-7.05-2.78-10.68-.17-2.8.06-5.69.79-8.36.31-1.12,1.18-7.51-1.43-5.21-2.08,1.83-3.87,4-5.27,6.39-.73,1.23-1.35,2.53-1.87,3.87-.5,1.07-1.04,2.67-2.41,2.79-1.68-.13-2.54-2.61-2.43-4.18.39-2.05,1.18-4.5,2.74-5.97,1.06-1,2.12-1.99,3.2-2.96.6-.65,6.23-4.93,3.44-4.88-1.3.02-4.54,1.27-6.69,1.99-3.36,1.11-6.8,2.01-10.22,2.92-1.61.61-3.13,1.39-4.79,1.87-2.4.58-4.84,1-7.27,1.47-1.56.3-3.18.31-4.74.54,6.56-9.15-1.62-7.08-8.11-6.72-.44,0-3.35-.42-3.55-.17,1.94-2.48,4.98-5.86,4.8-9.03-.45-3.37-4.3-1.08-5.98.13-1.79,1.1-4.16,1.82-6.25,1.9-.22,0-.32.31-.59-.19.3-.27.62-.53.8-.9,1.29-2.62,1.4-3.48,1.76-6.18.83-6.31,1.77-12.49,2.3-18.82.46-5.47-.13-11.08-1.26-16.24-.3-1.37-.77-2.7-1.34-3.98-.16-.35-.33-.71-.61-.97-.61-.57-1.81-.26-2.57-.25-1.05.02-2.09,0-3.13-.1-2.11-.16-4.28-.7-6.2-.44-4.26.7-3.1,4.39-.82,6.76.9,1.01,6.76,5.16,13.23,7.05,0,.88.22,2.4.43,3.91-1.19-.23-7.69-2.44-8.78-3.06-5.71-3.23-10.1-8.86-11.46-15.32-.31-1.49-.53-3.08-.46-4.6.05-.92.11-2.29,1.09-2.73.78-.35,1.74.18,2.43.51,3.39,1.37,7.07,2.52,10.67,3.4.9.17,1.69.06,2.58.06,1.81-.2,3.69-.75,5.39-1.41,1.49-.58,2.93-1.34,4.17-2.36,1.37-1.12,2.76-2.31,3.9-3.66,1.04-1.23,1.75-2.76,3.06-3.74.64-.48,1.39-.8,2.13-1.12.68-.29,1.36-.58,2.06-.82.96-.33,2.41.01,1.67,1.33-.2.35-.51.62-.83.88-1.55,1.29-3.13,2.56-4.43,4.1-1.3,1.54-2.92,5.18-2.52,5.4.4.22,2.94-3.01,4.45-4.49,1.73-1.68,3.36-3.51,5.41-4.78.74-.46,1.49.52,2.11,1.18-1.6,1.98-4.2,4.66-5.98,6.87-3.91,4.85-6.14,10.96-5.31,11.44.54.25,1.98-3.23,2.77-4.43,1.32-2.39,3.58-5.17,5.69-6.85,1.76-1.4,3.6-2.68,6.02-2.61,1.95.06,3.37,1.27,4.54,2.53,1.24,1.34,2.56,3.45,3.64,3.62.19-.79-1.12-3.98-2.23-5.73-.53-.84-1.12-1.77-1.32-2.76-.16-.83-.46-4.06,6.42-6.44,2.65-.92,7.18-2.02,10.72-2.34-.9-.87-4-.97-5.62-.97-9.01,0-13.86,4.2-14.48,4.71-.16-.56-.94-2.11-.9-2.27.08-.29,4.1-4.12,8.25-5.64,2.71-.99,7.33-1.39,10.2-1.46-.21-.51-3.23-1.09-5.39-1.09-6.38,0-12.19,3.93-13.18,4.56-.29-.81,1.24-3.65,3.63-5.29,2.39-1.64,7.15-3.52,7.69-3.91,1.1-.77,2.01-1.77,2.8-2.86.45-.62,3.27-6.38,3.82-7.31,3.45-5.81,3.23-14.05,3.61-15.29,2.69-1.13,8.6,1.8,10.51,3.74,8.39,8.52,7.29,24.45,6.06,24.53-.22.01-.8-.22-.92-.39-.07-.03-.32-9.03-3.31-14.63-1.54-2.88-5.31-8.42-6.87-6.69-1.45,1.62-2.42,10.24-6.36,17.24-.11.2,11.97,6.98,15.78,7.94,5.05,1.27,15.34,4.47,24.24,1.87.77,1.35-1.62,8.21-5.61,11.09,2.04-.08,5.69-1.05,7.54-1.98.92-.46,2.4-1.48,3.27-2.18.55.67,1.23,4.01,1.3,4.6.21,2.81-.58,5.21-2.42,7.43-.73,1.06-2.07,1.87-2.44,3.1-.05.66.75.96,1.31,1.07,1.79.39,3.68-.21,5.19-1.23.48-.29,1.08-.82,1.61-.48.63.56.7,1.67.86,2.48.36,2.48-.15,5.02-.97,7.39-1.3,3.84-3.52,7.28-5.49,10.8-3.66,6.57-17.13,19.8-17.13,19.8-1.52,1.49-3.47,2.62-5.04,4.09-1.6,1.5-3.08,3.11-4.44,4.83-2.69,3.4-4.86,7.21-6.35,11.28-2.16,5.89-3.47,13.33-1.2,19.36-.14-.37.74-.25.85-.36.29-.29.06-1.06.03-1.47-.47-6.51.52-13.5,3.18-19.49,1.73-3.9,4.33-7.47,7.7-10.11,3.96-3.1,8.61-4,13.51-4.56,2.56-.29,5.13-.48,7.69-.81,4.18-.31,8.47.04,12.34,1.71,2.62,1.1,5.18,2.67,7.24,3.21,5.54,1.37,3.41-4.32.78-6.57-6.39-5.48-14.22-7.01-22.47-6.55-1.07.06-2.71-.05-1.94-1.45.6-1.09,1.75-1.93,2.62-2.81,4.26-4.24,6.58-9.84,9.41-15.03.58-.85,1.53-.9,2.42-.6,2.41.82,4.93,1.58,7.41,2.23,2.88.85,4.44-.62,1.89-2.9-2.78-2.72-4.28-6.5-5.8-10.04-.34-.97-.17-1.5-.07-2.5.24-2.31,1.01-4.56,1.24-6.88.57-5.58.84-11.2,1.9-16.72.71-3.71,1.4-7.54,3.12-10.94,1.93-3.82,5.4-5.83,9.05-7.82.38-.21.95-.7,1.2-.29.17.27-.28,1.21-.39,1.47-.4,1-1,1.9-1.43,2.88-1.15,2.61-1.9,5.19-1.23,8.04.05.2.7-2.07.81-2.37.33-.89.7-1.77,1.11-2.63.81-1.67,1.83-3.28,3.21-4.54,1.05-.95,3.41-2.63,4.95-2.25.66.16,3.1,2.01,3.2,2.71-2.79.75-5.06,3.18-6.74,5.42-1.08,1.44-3.04,4.73-2.13,6.52.94,1.85,1.06-1.25,1.24-1.82,1.04-3.25,4.11-6.04,6.96-7.76,1.76-1.06,1.97-1.35,3.27.52,2.11,3.6.09,3.27-2.22,5.36-1.35,1.16-5.18,5.41-4.12,6.97.14.05.27-.02.41-.12.54-.43.93-1.09,1.35-1.67,1.01-1.48,2.38-2.7,3.69-3.95.99-.57,2.07-.94,2.63.37.83,1.75.99,5.14,1.28,7.4-.27,4.36-3,8.77-5.23,12.4-3.26,5.31-7.22,10.2-11.93,14.3-.8.7-3.47,4.15-.82,3.21,1.37-.49,2.32-1.82,3.59-2.47.19.65-.2,1.32-.29,1.99-.12.9.01,1.9.05,2.8.09,2.03.25,4.05.51,6.06.39,3.16,1.01,6.39.55,9.58-1.49,10.34-4.87,20.39-9.98,29.51-1.95,3.47-3.96,7.31-8.38,7.64-4.38.33-8.9-2.42-12.59-4.41-1.2-.64-2.31-1.45-3.27-2.41-2.31-2.26-3.31-5.6-5.98-7.52-4.23-2.87-7.92.41-6.8,5.14,1.06,5.14,5.32,8.19,9.88,10.16,3.45,1.49,7.01,2.72,10.57,3.92,1.78.61,3.57,1.2,5.35,1.83.93.32,3.99.86,4.36,1.98l-.76,7.88c-.83-.11-1.78.13-2.55.11-5.79-.35-8.82-2.53-12.47-6.76-1.51-1.11-3.6-1.15-5.15-.11-3.48,2.42-2.53,5.67.15,8.31,4.33,4.57,10.62,6,16.65,6.57.31.11.59.35.79.62,1.53,1.94,3.11,3.82,4.93,5.48.37.28.8.92,1.34.68.32-.17.42-.67.26-1.01-.76-1.15-1.57-2.23-1.77-3.63-.62-4.58.66-9.06,2.27-13.31,1.95-5.58,4.78-10.8,7.39-16.11,2.46-5,4.35-10.18,6.63-15.25,2.32-5.15,4.72-10.03,5.22-15.72,1,1.03,2.17,1.76,3.48,2.35,3.89,1.76,7.01,3.8,9.38,7.38,2.92,4.41,5.72,8.9,8.64,13.3,2.22,3.35,5.18,7.38,9.16,3.53.55-.53,1.11-1.08,1.5-1.74,1.96-3.36-2.46-7.42-4.11-9.99-2.08-3.25-4.17-6.51-6.25-9.76-1.06-1.66-2.14-3.35-2.71-5.23-.72-2.36-.6-4.89-.48-7.35.14-2.78.4-5.04-.6-7.66-.2-.51.6-.8.86-.36,1.12,1.91,1.84,4.01,2.87,5.98,1.05,2.01,2.25,3.94,3.58,5.78,3.36,4.64,7.65,8.81,12.47,11.92,2.67,1.72,5.44,3.46,8.22,4.87,1.5.81,5.01,2.2,3.22.08-1.47-1.58-3.36-3.05-5.08-4.57-2.47-1.75-4.76-3.73-7.03-5.72-3.3-2.86-6.33-6.06-9.19-9.36-.31-.36-.67-.77-.64-1.27.03-.45,3.12,2.12,3.32,2.32,1.13,1.18,2.15,2.46,3.31,3.62,1.11,1.1,2.38,2.11,3.86,2.68,1.18.45,3.31,1.12,4.31-.02,2.08-2.37-4.14-5.12-5.52-6.13-3.17-2.32-4.7-5.89-6.82-9.06-2.27-2.74-5.28-4.8-7.68-7.41-1.8-1.88-3.02-4.21-4.1-6.56-.82-1.77-1.53-3.79-1.43-5.75.17-2.43,1.47-1.1,2.46.32.94,1.67,1.72,3.42,2.74,5.05,1.86,2.73,4.17,5.08,6.71,7.18,4.43,3.77,9.23,7.22,15.09,7.65,5.13.18,10.43-1.82,14.07-5.47,1.93-2.07,3.11-4.7,3.94-7.38.12-1.94-1.53-2.88-3.21-3.24-3.34,2.45-7,4.34-11.22,4.66-2.11-.27-4.19-.93-6.13-1.79-5.59-2.48-9.95-7.81-12.48-13.28-1.92-4.78-3.09-9.84-3.67-14.95-.19-1.67-.15-3.44.62-4.93.97-2.01,2.81-2.33,3.82-.11,3.93,9.8,8.18,17.87,19.72,19.16,2.1.12,4.16-.06,6.25-.27,2.94-.29,1.67-1.12-.24-2.11-2.53-1.32-5.15-2.49-7.83-3.5-1.18-.44-2.38-.86-3.45-1.51-4.12-2.58-9.85-11.13-5.49-15.61,1.77-1.81,4.61-2.62,7.06-1.93,4.64,1.34,5.41,5.69,6.75,9.69,1.16,3.23,5.63,7.13,8.87,6.87,1.6-.6-1.15-3.36-1.64-4.26-.54-.77-1-1.6-1.33-2.45-1.35-3.62.42-5.01,3.78-3.2,1.97,1.65,3.8,3.45,6.17,4.5-.05-.19-.11-.39-.14-.58-2.42-2.07-4.16-4.74-6.79-6.58-3.82-2.61-7.57-5.29-11.13-8.22-.95-.9-4.89-3.5-3.87-4.94.73-.86,3.76-.67,5.32-1.09,3.01-.76,2.52-3.28.64-5.12-4.87-4-10.39-7.17-15.64-10.63-5.62-3.7-8.17-12.44-8.85-18.76-.29-2.66-.07-5.43.86-7.95.41-1.11,1.05-2.82,2-3.59,2.2-1.77,1.64,1.38,1.83,2.84.24,1.93.67,5.63,2.25,6.86.26.2.08-2.71.07-2.86-.13-1.54-.19-3.05-.03-4.59.31-2.92,1.24-5.78,2.74-8.31.59-.99,2.06-1.14,3.09-1.17,1.84-.06,2.26-.02,2.19,1.61-.17,3.93-1.96,6.92-.2,10.93.25.57.47,1,1.04,1.25.65-1.59.16-4.24.56-6.09.46-2.15,1.27-4.22,2.41-6.1.32-.52.67-1.03,1.16-1.39,3.6-2.59,9.33,3.65,10.39,6.58,1.45,4.02.39,8.46-.48,12.65-1.55,7.48.34,12.68,4.42,18.95,1.76,2.25,3.59,4.29,5.08,6.49,1.31,1.08-1.89,1.24-2.39,1.33-2.05.36-4.21.85-5.72,2.4-1.94,2.11-.66,5.11,1.68,6.5,1.15.74,2.46,1.19,3.76,1.63,4.11.94,8.25,2.61,12.44,3.09,2.48.29,5.05-.05,7.47.73,2.81.88,5.07,2.89,7.44,4.57,2.62,1.82,5.17,3.76,6.75,6.56,1.4,3.44.92,7.57,1.05,11.2-3.3-5.4-8.04-12.04-15.02-11.47-4.85.43-8.92,3.5-12.88,6.11-.97.34-3-.14-3.38,1,0,.02,0,.04-.01.05,2.56,1.88,5.93,2.51,9.02,1.74,2.01-.47,3.74-1.69,5.71-2.12,5.47-1.08,8.58,4.67,10.11,9.04,1.21,3.42,2.59,7.21,5.26,9.79.52.5,1.64.76,1.68.87.37,1.08-.63,2.98-.82,4.03Z"/>
    </g>
  </g>
  <g>
    <path class="cls-1" d="M354.99,128.78c4.6,3.45,10.42,5.2,17.29,5.2s12.46-2.08,17.02-6.2c4.56-4.11,7.57-11.23,8.96-21.18l.07-.51-1.98-.22-.14.35c-2.38,5.96-5.13,10.2-8.16,12.6-3.01,2.38-7.01,3.59-11.89,3.59-6.58,0-11.72-3.02-15.29-8.98-3.62-6.04-5.45-14.69-5.45-25.72,0-12.4,1.67-21.69,4.97-27.61,3.25-5.83,7.61-8.79,12.97-8.79s9.79,2.16,13.08,6.42c3.34,4.33,5.8,9.88,7.31,16.49l.09.39h2.35l.25-27.46h-1.63l-.13.09c-1.26.87-2.3,1.46-3.11,1.77-.79.3-1.81.45-3.04.45-1.42,0-3.59-.32-6.44-.96-1.39-.32-2.89-.63-4.46-.92-1.6-.29-3.24-.43-4.88-.43-10.16,0-18.04,4.06-23.41,12.05-5.33,7.94-8.03,18.75-8.03,32.14,0,8.68,1.13,16.29,3.37,22.62,2.25,6.38,5.72,11.36,10.31,14.8Z"/>
    <path class="cls-1" d="M452.51,125.81l.04-.22-.69-.93-.32.08c-.19.05-.62.11-1.58.11-1.6,0-2.6-.43-3.08-1.32-.52-.97-.79-2.32-.79-4.01v-30.46c0-6.83-1.71-11.91-5.07-15.11-3.36-3.19-8.27-4.81-14.6-4.81-3.21,0-6.35.69-9.31,2.05-2.96,1.36-5.46,3.13-7.44,5.27-2,2.17-3.22,4.41-3.64,6.68l-.06.32,1.83,1.28.3-.32c2.05-2.21,4.23-3.87,6.46-4.93,2.23-1.06,4.79-1.59,7.61-1.59,4.1,0,6.99,1.08,8.58,3.2,1.62,2.17,2.45,5.86,2.45,10.99v1.3c-7.23,1.41-12.94,3.04-17,4.85-4.32,1.94-7.42,4.39-9.2,7.29-1.78,2.9-2.68,6.66-2.68,11.18,0,4.79,1.3,8.85,3.87,12.08,2.59,3.27,6.32,4.92,11.07,4.92,3.47,0,6.76-.88,9.78-2.62,2.15-1.24,3.93-3.12,5.32-5.6.4,1.91,1.03,3.62,1.89,5.11,1.18,2.06,3.43,3.1,6.68,3.1,2.53,0,4.65-.65,6.31-1.92,1.67-1.29,2.78-3.31,3.28-6.01ZM419.54,105.74c.81-2.23,2.38-4.15,4.67-5.7,2.09-1.42,5.11-2.63,8.99-3.61v20.07c0,3.91-.66,6.7-1.95,8.3-1.29,1.59-3.07,2.36-5.44,2.36-2.03,0-3.74-1.02-5.24-3.13-1.51-2.13-2.27-5.32-2.27-9.48,0-3.56.42-6.53,1.24-8.81Z"/>
    <path class="cls-1" d="M477.29,128.13c-.84-.73-1.48-2.25-1.9-4.51-.44-2.34-.66-6-.66-10.89V44.99h-1.11l-.21.04c-2.46,1.11-5.39,2.04-8.7,2.76-3.31.72-6.31,1.08-8.94,1.08h-.5v2.15l.44.06c1.76.23,3.06.68,3.87,1.35.79.65,1.37,1.84,1.71,3.53.36,1.78.54,4.58.54,8.34v48.43c0,4.88-.2,8.55-.6,10.9-.39,2.27-.99,3.81-1.79,4.58-.82.78-2.08,1.33-3.75,1.63l-.41.07v2.13h26.37v-2.12l-.39-.09c-1.77-.38-3.1-.96-3.97-1.71Z"/>
    <path class="cls-1" d="M529.6,113.02c-1.41,3.36-3.28,5.77-5.56,7.17-2.3,1.4-5.17,2.11-8.54,2.11-5.04,0-8.71-2.02-11.22-6.19-2.53-4.19-3.81-11.41-3.81-21.47,0-6.95.8-12.5,2.39-16.5,1.55-3.91,3.94-5.81,7.3-5.81,2.54,0,4.57.88,6.18,2.69,1.61,1.8,2.42,5.26,2.42,10.26l-.28,5.58,11.55-3.85.04-.31c.17-1.33.25-2.34.25-3.1,0-4.17-1.55-7.67-4.6-10.39-3.04-2.7-7.95-4.07-14.59-4.07-5.35,0-9.95,1.51-13.66,4.48-3.7,2.96-6.49,6.95-8.29,11.87-1.79,4.89-2.7,10.33-2.7,16.19,0,10.67,2.22,18.76,6.61,24.05,4.41,5.31,10.35,8.01,17.68,8.01,5.77,0,10.55-1.7,14.23-5.05,3.68-3.35,5.92-8.5,6.65-15.3l.05-.5-1.96-.22-.14.35Z"/>
    <path class="cls-1" d="M541.03,81.69c.36,1.95.54,4.88.54,8.71v27.55c0,5.63,1.43,9.72,4.24,12.15,2.79,2.42,6.8,3.64,11.92,3.64,3.15,0,6.14-.84,8.88-2.5,1.99-1.21,3.61-2.87,4.82-4.96l.91,7.46h1.79l.12-.07c1.64-.94,4.08-1.72,7.25-2.31,3.18-.6,5.92-.86,8.14-.78l.52.02v-2.17l-.43-.06c-1.6-.23-2.82-.68-3.64-1.35-.8-.65-1.42-1.89-1.83-3.67-.43-1.85-.65-4.69-.65-8.44v-45.77h-1.11l-.22.05c-1.99.96-4.87,1.97-8.54,3-3.66,1.03-6.84,1.56-9.45,1.56h-.5v2.16l.44.05c2.1.23,3.59.63,4.45,1.2.81.53,1.34,1.5,1.6,2.89.28,1.5.42,4.01.42,7.43v29.98c0,3.26-.71,5.72-2.12,7.32-1.39,1.58-3.7,2.38-6.85,2.38-2.5,0-4.28-1.03-5.45-3.14-1.21-2.18-1.82-5.57-1.82-10.07v-44.8h-1.47l-.11.05c-1.74.87-4.57,1.86-8.41,2.94-3.82,1.08-6.8,1.62-8.85,1.62h-.5v2.15l.43.06c1.65.23,2.9.77,3.71,1.61.82.86,1.41,2.24,1.75,4.11Z"/>
    <path class="cls-1" d="M602.02,129.87c2.35,2.56,5.87,3.86,10.44,3.86,3.58,0,6.71-1.06,9.29-3.15,2.6-2.1,4.18-5.44,4.67-9.92l.05-.43-1.82-.45-.16.41c-.77,1.92-1.77,3.31-2.97,4.14-1.2.83-2.62,1.25-4.21,1.25-2.17,0-3.7-.6-4.57-1.8-.9-1.24-1.36-3.45-1.36-6.56v-40.4h11.68l3.97-3.04v-2.2h-15.66v-15.66h-2.01l-.14.26c-4,7.19-9.3,13.43-15.77,18.54l-.19.15v1.96h5.22v40.89c0,5.53,1.19,9.62,3.53,12.17Z"/>
    <path class="cls-1" d="M662.11,120.67l.05-.43-1.82-.45-.16.41c-.77,1.92-1.77,3.31-2.97,4.14-1.2.83-2.62,1.25-4.21,1.25-2.17,0-3.7-.6-4.57-1.8-.9-1.24-1.36-3.45-1.36-6.56v-40.4h11.68l3.97-3.04v-2.2h-15.66v-15.66h-2.01l-.14.26c-4,7.19-9.3,13.43-15.77,18.54l-.19.15v1.96h5.22v40.89c0,5.53,1.19,9.62,3.53,12.17,2.35,2.56,5.87,3.86,10.44,3.86,3.58,0,6.71-1.06,9.29-3.15,2.6-2.1,4.18-5.44,4.67-9.92Z"/>
    <path class="cls-1" d="M713.4,124.66l-.32.08c-.19.05-.62.11-1.58.11-1.6,0-2.6-.43-3.08-1.32-.52-.97-.79-2.32-.79-4.01v-30.46c0-6.83-1.71-11.91-5.07-15.11-3.36-3.19-8.27-4.81-14.6-4.81-3.21,0-6.35.69-9.31,2.05-2.96,1.36-5.46,3.13-7.44,5.27-2,2.17-3.22,4.41-3.64,6.68l-.06.32,1.83,1.28.3-.32c2.05-2.21,4.23-3.87,6.46-4.93,2.23-1.06,4.79-1.59,7.61-1.59,4.1,0,6.99,1.08,8.58,3.2,1.62,2.17,2.45,5.86,2.45,10.99v1.3c-7.23,1.41-12.94,3.04-17,4.85-4.32,1.94-7.42,4.39-9.2,7.29-1.78,2.9-2.68,6.66-2.68,11.18,0,4.79,1.3,8.85,3.87,12.08,2.59,3.27,6.32,4.92,11.07,4.92,3.47,0,6.76-.88,9.78-2.62,2.15-1.24,3.93-3.12,5.32-5.6.4,1.91,1.03,3.62,1.89,5.11,1.18,2.06,3.43,3.1,6.68,3.1,2.53,0,4.65-.65,6.31-1.92,1.67-1.29,2.78-3.31,3.28-6.01l.04-.22-.69-.93ZM681.08,105.74c.81-2.23,2.38-4.15,4.67-5.7,2.09-1.42,5.11-2.63,8.99-3.61v20.07c0,3.91-.66,6.7-1.95,8.3-1.29,1.59-3.07,2.36-5.44,2.36-2.03,0-3.74-1.02-5.24-3.13-1.51-2.13-2.27-5.32-2.27-9.48,0-3.56.42-6.53,1.24-8.81Z"/>
    <path class="cls-1" d="M385.23,152.74l.34.11c1.61.54,2.39,1.61,2.39,3.3,0,2.32-1.22,5.43-3.63,9.23-2.45,3.87-5.84,8.63-10.06,14.14l-10.03,13.01v-16.09c0-6.63.24-11.61.71-14.82.46-3.14,1.21-5.3,2.22-6.44,1-1.12,2.59-1.9,4.73-2.31l.41-.08v-2.22h-30.67v2.22l.41.08c2.13.41,3.72,1.19,4.73,2.31,1.01,1.14,1.76,3.3,2.22,6.44.47,3.22.71,8.21.71,14.82v37.73c0,6.61-.24,11.6-.71,14.82-.46,3.14-1.21,5.31-2.22,6.44-1,1.12-2.6,1.9-4.73,2.31l-.41.08v2.22h29.37v-2.18l-.36-.1c-1.71-.49-3-1.3-3.83-2.42-.85-1.14-1.5-3.31-1.92-6.47-.43-3.2-.65-8.15-.65-14.7v-14.42l16.64,25.88c3.14,4.93,4.74,8.25,4.74,9.88,0,.77-.25,1.84-2.45,2.24l-.41.08v2.22h28.59v-2.17l-.34-.11c-1.99-.66-4.04-2.15-6.1-4.41-2.1-2.31-4.86-6.05-8.21-11.13l-22.95-34.55c7.21-8.39,13.18-15,17.75-19.66,4.59-4.68,8.36-8.12,11.19-10.23,2.82-2.09,5.63-3.76,8.36-4.95l.3-.13v-2.13h-26.12v2.17Z"/>
    <path class="cls-1" d="M433.41,167.39c1.77-1.77,2.67-3.96,2.67-6.5s-.92-4.73-2.74-6.5c-1.82-1.77-4.02-2.67-6.56-2.67s-4.86.9-6.63,2.67c-1.77,1.77-2.67,3.96-2.67,6.5s.9,4.84,2.68,6.57c1.77,1.73,4,2.6,6.62,2.6s4.86-.9,6.63-2.67Z"/>
    <path class="cls-1" d="M437.08,235.99c-.87-.83-1.52-2.49-1.93-4.92h0c-.43-2.51-.64-6.44-.64-11.69v-46.69h-1.15l-.21.05c-2.22,1.02-5.3,2.02-9.15,2.96-3.84.94-7.13,1.42-9.77,1.42h-.5v2.24l.44.06c1.87.24,3.25.83,4.12,1.74.88.92,1.52,2.41,1.89,4.43.38,2.08.58,5.23.58,9.34v24.46c0,5.24-.22,9.17-.64,11.69-.41,2.44-1.06,4.1-1.93,4.92-.88.84-2.24,1.43-4.04,1.76l-.41.08v2.22h27.81v-2.22l-.41-.08c-1.8-.33-3.16-.92-4.04-1.76Z"/>
    <path class="cls-1" d="M464.56,158.51h-2.1l-.14.26c-4.29,7.72-9.98,14.41-16.92,19.89l-.19.15v2.05h5.59v43.86c0,5.92,1.27,10.3,3.78,13.03,2.52,2.74,6.27,4.13,11.17,4.13,3.83,0,7.17-1.13,9.94-3.36,2.78-2.24,4.46-5.82,5-10.61l.05-.44-1.89-.47-.16.41c-.83,2.06-1.9,3.56-3.2,4.46-1.29.89-2.82,1.34-4.53,1.34-2.33,0-3.99-.65-4.93-1.94-.97-1.34-1.46-3.71-1.46-7.06v-43.34h12.55l4.24-3.25v-2.31h-16.78v-16.78Z"/>
    <path class="cls-1" d="M530.46,219.71c-1.51,3.61-3.52,6.2-5.98,7.7-2.47,1.51-5.55,2.27-9.17,2.27-5.41,0-9.36-2.18-12.06-6.65-2.71-4.49-4.09-12.24-4.09-23.03,0-7.45.86-13.41,2.57-17.7,1.67-4.21,4.24-6.25,7.86-6.25,2.74,0,4.91.95,6.65,2.89,1.73,1.93,2.6,5.65,2.61,11.02l-.3,5.94,12.32-4.11.04-.31c.18-1.41.26-2.52.26-3.31,0-4.47-1.65-8.2-4.92-11.11-3.25-2.89-8.5-4.36-15.62-4.36-5.73,0-10.65,1.61-14.63,4.79-3.96,3.17-6.95,7.44-8.87,12.71-1.92,5.23-2.89,11.07-2.89,17.35,0,11.43,2.38,20.1,7.08,25.76,4.72,5.69,11.09,8.57,18.93,8.57,6.17,0,11.3-1.82,15.23-5.4,3.94-3.58,6.33-9.1,7.12-16.39l.05-.5-2.04-.23-.15.35Z"/>
    <path class="cls-1" d="M591.25,235.99c-.87-.83-1.52-2.49-1.93-4.92-.43-2.51-.64-6.44-.64-11.69v-30.44c0-5.73-1.07-9.91-3.18-12.42-2.13-2.54-5.39-3.82-9.69-3.82-3.17,0-6.72.8-10.54,2.38-2.72,1.13-5.34,2.53-7.83,4.2v-32.47h-1.15l-.21.04c-2.64,1.19-5.78,2.19-9.33,2.96-3.55.77-6.77,1.16-9.59,1.16h-.5v2.25l.44.06c1.89.25,3.29.74,4.17,1.45.86.7,1.48,1.98,1.84,3.81.38,1.91.58,4.92.58,8.94v51.91c0,5.24-.22,9.17-.64,11.69-.41,2.44-1.06,4.09-1.93,4.92-.88.84-2.24,1.43-4.04,1.76l-.41.08v2.22h27.81v-2.22l-.41-.08c-1.8-.33-3.16-.92-4.04-1.76-.87-.83-1.52-2.49-1.93-4.92-.43-2.51-.64-6.44-.64-11.69v-35.61c1.07-.56,2.18-1.05,3.31-1.45,1.76-.63,3.58-.95,5.43-.95,3.2,0,5.48.83,6.76,2.47,1.31,1.68,1.98,4.71,1.98,8.99v26.54c0,5.24-.22,9.17-.64,11.69-.41,2.44-1.06,4.1-1.93,4.92-.88.84-2.24,1.43-4.04,1.76l-.41.08v2.22h27.81v-2.22l-.41-.08c-1.8-.33-3.16-.92-4.04-1.76Z"/>
    <path class="cls-1" d="M626.94,172.69c-5.73,0-10.59,1.61-14.44,4.8-3.83,3.17-6.72,7.46-8.61,12.77-1.88,5.28-2.83,11.13-2.83,17.41,0,6.62.91,12.54,2.7,17.6,1.8,5.1,4.66,9.18,8.49,12.14,3.85,2.96,8.79,4.46,14.68,4.46s10.95-1.8,14.72-5.34c3.75-3.53,6.15-8.88,7.11-15.91l.06-.46-2-.44-.18.35c-1.77,3.45-3.96,5.94-6.5,7.4-2.56,1.47-5.56,2.21-8.92,2.21-5.84,0-9.73-2.06-11.91-6.3-2.21-4.28-3.33-10.53-3.33-18.57v-1.32h33.05v-.5c0-9.59-1.71-17.1-5.09-22.33-3.42-5.29-9.15-7.97-17.01-7.97ZM617.74,186.38c.89-3.76,2.05-6.47,3.46-8.04,1.39-1.55,2.97-2.3,4.83-2.3s3.43.68,4.55,2.09c1.15,1.44,2.01,3.92,2.56,7.38.54,3.42.91,8.25,1.09,14.38h-17.94c.15-5.5.63-10.03,1.45-13.5Z"/>
    <path class="cls-1" d="M709.87,235.7c-.94-1.06-1.64-2.66-2.1-4.78-.47-2.16-.7-5.08-.7-8.68v-33.31c0-5.73-1.07-9.91-3.18-12.42-2.13-2.54-5.39-3.82-9.69-3.82-3.17,0-6.72.8-10.54,2.38-2.89,1.2-5.67,2.71-8.3,4.53l.23-6.91h-1.3l-.22.05c-2.13,1.02-5.12,2.02-8.88,2.96-3.75.94-7,1.42-9.64,1.42h-.5v2.24l.43.06c1.79.24,3.16.83,4.07,1.74.92.92,1.57,2.43,1.94,4.48.38,2.13.58,5.25.58,9.28v27.32c0,3.59-.24,6.51-.7,8.68-.46,2.12-1.16,3.73-2.1,4.78-.92,1.04-2.21,1.73-3.82,2.05l-.4.08v2.22h26.38v-2.21l-.4-.08c-1.51-.32-2.64-.97-3.34-1.95-.73-1.01-1.22-2.53-1.47-4.52-.26-2.05-.39-5.09-.39-9.04v-38.51c2.88-1.56,5.81-2.36,8.73-2.36,3.3,0,5.61.69,6.85,2.05,1.25,1.37,1.89,4.19,1.89,8.38v30.44c0,3.95-.13,6.99-.39,9.04-.25,1.99-.74,3.51-1.47,4.52-.7.98-1.82,1.63-3.34,1.95l-.4.08v2.21h26.38v-2.22l-.4-.08c-1.62-.32-2.9-1.01-3.82-2.05Z"/>
  </g>
</svg>