<?xml version="1.0" encoding="UTF-8"?>
<svg id="Layer_4" data-name="Layer 4" xmlns="http://www.w3.org/2000/svg" viewBox="0 0 435.14 430.45">
  <defs>
    <style>
      .cls-1 {
        fill: #f24e07;
      }

      .cls-2 {
        fill: #f8f5e6;
      }
    </style>
  </defs>
  <path class="cls-2" d="M429.38,59.89c-4.02-12.41-11.08-24.7-21.55-37.56-.17-.2-.34-.4-.53-.58-14.65-14.44-33.68-21.75-56.54-21.75-4.56,0-9.33.29-14.18.87-39.05,4.66-69.63,31.8-79.8,70.83-.59,2.28-1.12,4.61-1.55,6.94-.65,3.58-2.3,15.95,4,24.55.45.61.92,1.19,1.42,1.73-1.81-.32-3.66-.48-5.51-.48-5.49,0-10.73,1.45-15.14,4.2-5.7,3.55-9.95,9.09-11.95,15.46-2.15-3.71-4.77-7.1-7.94-9.98-4.48-4.07-9.66-6.23-14.99-6.23-3.51,0-6.98.89-10.36,2.66-.24-.37-.49-.74-.76-1.12-.35-.48-.63-.9-.89-1.26-2.14-3.07-3.09-4.12-6.88-6.71-1.81-1.24-3.56-2.21-5.25-3.15-2.73-1.52-5.09-2.83-6.66-4.74-3.22-3.91-7.05-10.92-10.14-16.54-1.27-2.31-2.46-4.5-3.57-6.39-1.29-2.22-2.84-4.5-4.86-7.18-.16-.22-.42-.63-.67-1.04-1.31-2.13-3.5-5.7-8.1-6.9-.32-.09-.64-.19-.96-.29-1.27-.39-3-.93-5.04-.99-.17,0-.35-.01-.53-.01-2.97,0-5.84.86-8.3,2.49-4.26,2.82-6.69,7.33-6.49,12.05.19,4.6,2.66,8.49,4.65,11.62.46.73.9,1.43,1.22,1.99,2.53,4.5,4.69,8.19,6.79,11.61.58.94,1.14,1.85,1.71,2.75,3.82,6.08,6.35,10.1,6.1,16.03-.09,2.17.22,6.38.76,8.77,2.27,9.99,7.12,18.57,11.81,26.85,1.4,2.48,2.72,4.82,3.99,7.21,6.72,12.69,12.46,23.33,18.64,34.02.74,1.28,1.5,2.56,2.26,3.84,1.69,2.84,3.28,5.53,4.71,8.28.75,1.44,1.52,2.86,2.27,4.22.36.65.72,1.3,1.07,1.95.09.17.19.34.29.5-.81,4.14-1.6,8.4-1.89,12.6-.07,1.09-.11,2.55-.14,4.15-.38-.08-2.61-.55-2.61-.55-.68-.14-1.29-.31-1.83-.5.33-9.65-.72-28.02-11.91-39.54-6.17-6.35-14.42-10.31-21.53-10.31-5.72,0-10.11,2.68-11.74,7.17-.1.27-.19.55-.25.83-.24,1.08-.37,2.22-.51,3.65-.27,2.66-.65,6.31-2.02,9.84-.55,1.43-1.18,2.94-1.84,4.45-1.58-2.92-3.99-4.88-5.88-6.42-.87-.71-1.69-1.37-2.21-1.95-2.49-2.76-20.77-26.72-27.34-42.47-.14-.83-.37-2.87-.53-4.4-.6-5.62-1.16-10.17-2.28-13.24-2.62-7.17-11.33-10.44-18.32-10.44-1.67,0-3.29.17-4.81.53-6.83,1.55-12.53,6.38-15.94,11.26-.94-.09-1.93-.14-2.96-.14-7.52,0-18.11,2.49-23.58,7.96-4.48,4.48-7.86,10.71-9.59,16.05-5.57.9-10.53,3.17-15.36,8.6-6.59,7.4-9.72,20.16-3.56,28.68,3.1,4.28,8.53,7.12,14.82,10.41,4.97,2.59,10.59,5.53,13.52,8.71,6.2,6.74,19.84,25.2,25.42,33.32.29.72.61,1.4.94,2.05-.86-.33-1.76-.65-2.71-.96l-.65-.21c-1.71-.55-3.47-1.13-5.56-1.13-3.03,0-7.23,1.23-10.04,7.1-.04.09-.09.19-.13.29-5.62,13.21-.05,28.41,7.98,37.64,5.69,6.47,13.66,11.28,23.67,14.31.01,1.23-.47,3.52-.76,4.84-.14.65-.27,1.28-.37,1.84l-1.35,6.71c-.74,3.71-1.48,7.41-2.24,11.11-.47,2.18-.99,3.79-1.63,5.18-1.95,3.8-2.14,7.2-.56,10.1,1.39,2.55,3.95,4.19,7.05,4.48.09,0,.19.01.28.02.31.01.63.02.94.02.4,0,.79-.01,1.17-.04-.63,1.84-.58,3.74.16,5.69.23.62.54,1.19.93,1.72,2.27,3.09,5.66,3.87,7.47,4.3.22.05.42.09.61.15.09.02.19.05.29.07,2.14.53,4.38,1.04,6.73,1.32-.08,1.12.09,2.33.63,3.63,2.05,4.99,7.75,5.48,10.49,5.72l.24.02c1.42.14,3.01.22,4.73.22,4.89,0,11.99-.65,17.24-2.46,1.1-.39,2.14-.81,3.13-1.23,2.32,4.26,4.82,8.56,7.73,12.76,3.84,5.57,8.38,10.52,12.7,15.12.09.09.19.19.28.28,21.83,20.75,55.9,33.13,91.13,33.13h.6c.14,0,.27,0,.41-.01,28.45-1.72,52.5-6.68,73.47-15.14,42.75-16.98,77.19-44.46,96.98-77.37,11.85-19.26,16.63-40.7,19.47-57.24.04-.22.07-.45.09-.68.57-7.7.65-15.93.27-25.17-.01-11.67-1.25-23.32-2.45-34.58-1.26-11.79-2.55-23.99-2.35-35.8v-.12c0-17.56,2.96-35.4,5.8-52.66,2.05-12.4,4.17-25.22,5.25-38.1.02-.3.03-.59.02-.89-.45-11.25-2.44-22.59-5.76-32.81ZM392.75,102.26c-1.22,11.03-4.63,21.62-8.24,32.84-4.43,13.74-8.98,27.9-9.33,43.2-3.88-3.84-7.42-7.99-9.46-12.55-1.57-3.52-1.96-7.48-1.26-12.85l.11-.82c1.06-8.03,2.25-17.13-1.22-26.32-4.76-12.59-17.98-17.07-28.76-17.07-2.19,0-4.36.18-6.45.53-8.65,1.45-15.93,6.33-21.05,14.08-6.7,10.14-9.07,24.78-6.06,37.31.63,2.61,1.76,5.67,3.17,8.92-.1-.08-.2-.17-.3-.25-4.82-4.07-9.38-7.92-13.54-12.18-3.76-3.84-5.53-7.03-5.72-10.37-.14-2.11.08-4.44.3-6.91.44-4.81.94-10.25-.94-15.94-1.58-4.78-4.74-9.15-9.15-12.64-.18-.14-.37-.29-.55-.42h.1c7.63,0,14.93-5.01,19.52-13.39,2.76-4.84,4.76-9.89,6.71-14.79,1.32-3.33,2.58-6.48,4.02-9.47,3.85-7.28,8.82-14.69,15.18-22.67,8-9.3,17.01-14.03,26.77-14.03,1.39,0,2.81.09,4.24.29,9.03,1.22,17.59,5.45,26.65,9.92,1.19.59,2.37,1.17,3.56,1.75,7.18,6.62,10.64,20.16,11.49,30.82.58,7.42,1.09,15.31.23,23.01Z"/>
  <g>
    <path class="cls-1" d="M131.73,211.99c-.06-.06-.05-.05,0,0,0,0,0,0,0,0Z"/>
    <path class="cls-1" d="M393.56,293.09c-10.7.51-20.42,6.54-30.87,7.94-4.98.6-9.95-.48-14.9-.86-2.53-.07-9.54-.75-10.36,1.67-.15.93,1.2,2.29,2.95,4,2.77,2.57,5.04,5.79,8.3,7.78,5.79,3.28,14.17,3.09,20.58.87,5.2-1.93,9.34-6.01,13.71-9.43,2.77-2.21,5.74-4.15,8.88-5.79,1.72-.91,3.79-1.86,5.22-2.98.87-.68,1.34-1.32,1.3-1.84v-.05c-.24-1.33-3.31-1.37-4.81-1.31Z"/>
    <path class="cls-1" d="M398.08,254.01c-2.76,0-5.55.81-8.02,2.24-8.1,4.55-11.59,14.11-17.42,20.77l-.1.11c-2.16,2.69-6.88,6.02-7.58,9-.28,3.25,4.77,2.28,6.94,1.71,10.03-2.7,18.37-9.31,23.85-17.84,2.16-3.49,5.78-7.32,7.62-10.63,1.93-3.68-1.3-5.47-5.29-5.36Z"/>
    <path class="cls-1" d="M344.63,355.92c-2.05,4.1,1.44,9.95,4.78,12.36,4.13,2.47,8,3.24,12.52,2.01,2.17-1.22,6.11-4.32,5.95-7.51-1.72-3.38-3.38-4.49-6.54-6.54-4.22-2.51-13.64-6.49-16.72-.32Z"/>
    <path class="cls-1" d="M163.21,343.17s.01,0,.02-.01c.39-.28.35-.87.26-1.34-.4-2.01-1.08-3.91-1.89-5.78-.43-.98-.76-2.06-.53-3.11.47-2.15,2.56-4.1,4.6-4.71,1.27-.38,2.61-.52,3.86-.96,1.19-.42,2.3-1.12,3.08-2.12,1.26-1.62.64-3.32,1.32-5.07.52-1.32,1.94-2.18,3.36-2.24,2.54-.12,4.11,1.07,5.92,2.53.82.66,2.99,2.38,4.13,1.74,1.18-.68.33-3.52.12-4.49-.28-1.29-.97-1.97-.71-3.32.25-1.33,1.7-2,2.58-3,2.73-3.09,3.35-8.39,3.16-12.35-.14-2.76-2.09-10.33-6.28-7.84-1.64.98-1.67,3.53-1.41,5.17.2,1.27.6,2.5.83,3.76,1.03,5.6-2.41,13.34-8,15.43-1.5.56-3.13.64-4.73.59-2.08-.07-4.18-.38-6.06-1.26-2.79-1.32-4.71-3.64-3.97-6.79.82-3.44.14-6.85-1.21-10.08-.81-1.95-2.19-4.19-4.59-3.87-1.38.18-2.46,1.19-3.15,2.35-.68,1.28-1.3,2.5-2.28,3.36-1.76,1.59-4.65,2.14-5.96,4.24-2.55,5.28,4.84,7.91,8.72,8.58,1.13.19,2.23.19,3.36.27,2.44.18,3.48,3.45,4,5.39.79,2.97.88,5.91-.54,8.73-1.9,3.76-6.32,6.39-10.39,7.09-4.72.81-9.36-1.02-13-3.97-.92-1.07-2.18-3.92-3.55-4.37-1.39-.45-2.4.5-2.21,1.74.22,1.47,2.23,3.71,3.12,4.89,2.28,3.02,5.26,5.69,9.01,6.64,2.8.71,5.76.4,8.6-.13.51-.1,1.04-.2,1.55-.1.63.12,1.16.53,1.68.91,1.86,1.37,3.89,2.53,6.01,3.44.38.16.84.31,1.18.08ZM169.48,320.55c.94.68.78,2.71-.37,3.38-.91.64-2.25.12-2.5-.97l-.03-.13c-.37-1.5,1.49-3.28,2.89-2.28Z"/>
    <path class="cls-1" d="M173.57,247.84s0,0,0,.03c0,.04,0,.08.02.12.01.08.02.16.04.24,3.13,2.85,7.44,3.85,11.05,5.83,3.08,1.53,5.76,3.86,7.97,6.56,3.07,4.39,4.36,9.55,4.01,14.86-.26,3.87-1.79,7.61-1.71,11.45,6.93-5.31,7.14-15.44,7.38-23.28-.22-4.1-2.6-6.6-5.99-8.6-2.21-1.3-4.55-2.36-6.86-3.47-2.35-.36-4.71-.7-5.81-.96-2.36-.57-4.52-1.44-7.19-2.02-.99-.22-2-.84-2.91-.96,0,.04,0,.07,0,.11,0,.03,0,.06,0,.09Z"/>
    <path class="cls-1" d="M156.61,274.51c-.05,2.53.77,5.05.98,7.53,0,2.71-.25,5.17,3.14,4.22,2.44-2.29,5.11-4.21,7.79-6.2,6.19-4.15,6.29-12.12,8.42-18.69.28-.84,2.05-5.94-.26-5.56-1.23.48-2.56,1.71-3.79,2.32-9.84,3.06-14.97,5.03-16.29,16.39ZM169.03,266.45l.04.13c.9,2.67-3.41,5.46-4.6,2.26-.84-2.53,3.16-5.42,4.55-2.39Z"/>
    <path class="cls-1" d="M116.61,301c-1.04,1.19-10.52,13.73-10.56,13.93,1.09.44,2.22.83,3.41.85,1.66.11,3.6-.65,5.43-.59,1.52.02,2.88.61,4.34.92,1.58.33,3.21.54,4.83.44,4.46-.23,7.55-3.65,9.88-7.12.89-1.33,2.1-2.37,3.61-2.91,1.64-.71,1.72-2.87.03-3.62-1.27-.59-2.78-.02-4.08-.52-3.33-1.73-6.45-4.15-10.42-4.3-2.53-.07-4.81,1.03-6.46,2.92ZM128.33,303.32l.03.13c.58,2.84-2.91,3.52-4.23,1.32-2.14-3.94,3.15-5.31,4.2-1.45Z"/>
    <path class="cls-1" d="M121.45,336.61c-4.64-1.51-9.24-3.52-13.35-6.16-5.16-3.32-7.33-9.63-8.11-15.51-.42-3.24-.4-6.51-.12-9.76.14-1.22.9-7.69-1.11-5.7-1.38,2.22-1.7,5.26-2.43,7.61-1.39,5.4-2.1,11.29-.27,16.68,2.69,7.61,9.74,12.94,17.11,15.7,3.41,1.04,7.1.98,10.64,1.19,1.94.08,3.94.4,5.82.74,6.89-2.17-6.35-4-8.17-4.8Z"/>
    <path class="cls-1" d="M109.73,288.87c.32.19.59.4.86.62,2,.87,4.24,1.62,6.4,1.38,1.5-.16,2.97-1.14,3.62-2.53.12-.53.18-1.1.14-1.71-.02-.34-.06-.67-.13-.99-.33-.71-.85-1.35-1.39-1.89-1.62-1.62-3.54-3.14-5.68-3.98-1.38-.52-5.03-1.17-6.43-.64-.02,0-.04.01-.05.02-1.77.67-3.38,2.58-3.38,4.51,0,3.29,4.04,3.98,6.05,5.2Z"/>
    <path class="cls-1" d="M147.22,266.06l.08-.11c1.9-2.56,2.3-7.57,1.12-10.64-1.92-5.74-6.41-4.75-8.34.26-.98,2.59-1.03,5.71-.12,8.34,1.39,4.24,4.88,5.54,7.25,2.16Z"/>
    <path class="cls-1" d="M88.24,286.91c.25,3.04.83,8.51,2.82,9.9l.05.02c1.27.23,1.48-1.77,1.72-2.73.61-4.55.57-12.71-2.23-16.43-2.64-1.87-2.54,7.54-2.37,9.25Z"/>
    <path class="cls-1" d="M158.34,238.05c1.97,1.15,5.43,2.23,7.07,1.08l.07-.05c1.29-1.12.04-2.88-.92-3.82-2.25-2.1-6.16-4.13-9.25-3.18-2.97,1.53,1.11,4.92,3.03,5.97Z"/>
    <path class="cls-1" d="M148.12,275.05c-1.17,2.01,2.59,9.26,5.43,6.93,1.84-1.52.2-7.59-1.72-8.42-1.34-.58-3.02.31-3.71,1.5Z"/>
    <path class="cls-1" d="M133.22,298.08c3.81-2.51-3.54-7.8-5.52-4.44-1.38,2.35,3.9,5.51,5.52,4.44Z"/>
    <path class="cls-1" d="M174.45,288.72c-1.57,2.19-1.19,6.45,1.99,2.83,3.01-3.43-.07-5.51-1.99-2.83Z"/>
    <path class="cls-1" d="M140.03,317.85c.84-1.46-5.43-4.39-6.4-2.73-.93,1.59,4.09,3.07,5.14,3.12.54.03.85.22,1.26-.39Z"/>
    <path class="cls-1" d="M143.09,321.85c.14-1.85-6.93-1.55-7.3-.11v.06c.38,1.54,6.51,1.39,7.3.05Z"/>
    <path class="cls-1" d="M177.22,307.11c3.05.67,8.24-1.21,2.33-2.16-.81-.13-4.62-.41-4.65.71-.02.62,1.68,1.32,2.33,1.46Z"/>
    <path class="cls-1" d="M176.39,298.44c1.06,2.26,6.1-.09,5.72-1.95-.11-.52-.89-1.03-1.36-1.04-.79-.01-4.35,2.54-4.36,2.99Z"/>
    <path class="cls-1" d="M144.93,328.3c2.53.68,3.1-6.65.26-3.99-.94.89-2.05,3.5-.26,3.99Z"/>
    <path class="cls-1" d="M255.93,319.22c.11-7.44-4.88-14.58-10.25-19.57-4.09-3.82-13.44-4.27-13.16,3.11.87,6.62,8.74,10.44,12.12,15.66l.08.12c1.18,1.66,2.24,3.48,3.49,4.84,4.22,4.65,7.55.63,7.71-4.15Z"/>
    <path class="cls-1" d="M222.11,348.98c4.09,3.84,10.52,5.52,14.04-.04,3.23-5.1-4.27-12.39-8.54-14.33-4.41-2.01-4.35-.06-7.08,2.55-.77.73-1.77.87-2.48,1.89-1.85,2.66,2.16,8.14,4.06,9.93Z"/>
    <path class="cls-1" d="M271.91,367.68c-5.15,3.78-3.63,15.25-.89,20.59,2.48,5.16,7.05,6.08,8.87.2,1.46-4.45.9-11.79-1.52-16.65-1.16-2.36-3.53-5.55-6.38-4.18l-.08.04Z"/>
    <path class="cls-1" d="M289.94,50.79l-.09-.13c-1.47-2.26-4.25-2.32-5.24.28-1.09,2.46.21,6.21,2.26,7.35,2.6,1.55,4.52-1.58,4.2-4.08-.07-1.21-.49-2.47-1.14-3.42Z"/>
    <path class="cls-1" d="M115.23,320.23c-.29.52-.59,1.08-.69,1.68-.05.3,0,1.43.59.86.13-.13.19-.32.23-.5.15-.67.16-1.38.04-2.06,0-.02,0-.03-.02-.05-.04-.05-.11.01-.15.07Z"/>
    <path class="cls-1" d="M117.33,319.63c-.73.6-.99,2.26-.71,3.19.13.5.52,1,.97.6.82-.67.88-4.02-.19-3.84l-.07.04Z"/>
    <path class="cls-1" d="M119.58,319.92c-.12-.02-.28.05-.31.19-.06.28-.1.55-.12.83,0,.06,0,.13-.01.2,0,0-.01.04-.02.05.3,3.51,1.96,2.88.81-.26-.06-.24-.1-.48-.12-.73,0-.14-.09-.26-.23-.28Z"/>
    <path class="cls-1" d="M176.17,275.09c-.04.13,0,.25.08.35l.11.14s.04.08.05.12c.07.16.2.29.34.37.12.07.24.12.36.19.16.08.33.18.52.18.06,0,.13,0,.19,0,.13,0,.26-.01.39-.02.24-.01.44-.12.54-.34.09-.2.06-.46-.1-.62-.09-.09-.18-.17-.26-.26-.04-.04-.09-.09-.13-.13-.54-.5-1.19-.36-1.82-.24-.13.02-.23.13-.27.25Z"/>
    <path class="cls-1" d="M177.15,271.82c-.07.2-.04.51.07.69.13.21.27.41.45.58.12.11.25.22.39.32.21.15.49.19.74.19.24,0,.49-.02.73-.08.36-.09.73-.24.91-.58.09-.18.15-.39.1-.6-.06-.21-.17-.39-.36-.51-.17-.1-.33-.16-.53-.18,0,0-.02,0-.03,0-.09-.02-.19-.05-.28-.08-.02-.01-.04-.02-.06-.03-.61-.36-1.27-.45-1.87-.12-.11.12-.2.25-.25.41Z"/>
    <path class="cls-1" d="M180.08,267.81c-.66-.43-1.29-.52-2.16-.08-.13.06-.25.19-.33.31-.1.16-.13.34-.11.52.01.15.06.28.15.4.1.14.26.3.44.32.14.02.28.06.42.11.08.05.17.09.27.12.14.05.28.06.42.03.12,0,.23-.03.33-.08.14,0,.27,0,.41.03.03,0,.06,0,.09.01.1,0,.2-.01.29-.05.16-.06.31-.17.4-.32.07-.12.1-.25.11-.38-.09-.39-.37-.71-.73-.95Z"/>
    <path class="cls-1" d="M416.89,184.34c.01-30.83,8.5-60.76,11.07-91.35-.41-10.27-2.24-21.09-5.41-30.87-4.23-13.06-11.67-24.66-20.29-35.24-17.75-17.49-40.79-21.73-64.82-18.86-36.82,4.4-64.38,29.77-73.69,65.49-.55,2.13-1.04,4.27-1.44,6.43-1.61,8.83-.52,22.17,10.73,23.6,6.48.82,11.72-4.35,14.6-9.62,4.33-7.58,6.81-16.18,10.59-24,4.49-8.51,10.04-16.48,16.06-24.01,9.66-11.28,22.34-18.33,37.51-16.28,11.82,1.6,22.61,7.6,33.26,12.75,9.68,8.15,13.68,24.15,14.64,36.3.64,8.11,1.11,16.27.21,24.37-3,27.1-18.33,51.54-17.51,79.25.07,2.26.22,4.52.47,6.76.12,1.09,1.07,4.38-.23,4.87-.95.36-2.8-1.57-3.46-2.11-1.95-1.59-3.72-3.38-5.57-5.09-5.62-5.2-11.28-10.98-14.46-18.05-2.41-5.39-2.58-10.95-1.82-16.72,1.04-7.93,2.23-15.89-.71-23.66-3.97-10.49-17.2-13.68-27.28-11.99-18.68,3.15-25.23,26.34-21.31,42.61,2.15,8.94,11.67,25.07,16.57,33.37,4.03,6.81,8.63,13.16,14.38,18.65-1.13-1.08-7.29.06-8.69.18-3.74.33-7.45.91-11.11,1.73-.63.14-1.33.29-1.91,0-.42-.21-.7-.61-.95-1-.7-1.08-1.31-2.21-1.82-3.38.22.51,4.25-.79,4.67-1.02,1.36-.74,2.36-1.86,2.88-3.32,1.15-3.25-.42-6.98-2.49-9.48-9.54-12.63-23.3-21.2-34.32-32.51-4.07-4.15-7.42-8.93-7.77-14.96-.44-7.01,1.98-14.17-.29-21.04-1.22-3.68-3.75-6.85-6.79-9.25-7.42-5.88-18.53-7.13-26.57-2.13-4.75,2.95-8.21,7.89-9.37,13.36-1.94,9.17,3.41,17.78,7.96,25.31,2.12,2.99,10.66,10.28,6.88,13.68-2.13,2.06-8.12,3.82-10.66,7.25-3.59,4.48-4.87,10.33-4.48,15.78-.5-1.1-.87-2.26-1.27-3.4-.54-1.3-1.57-2.4-2.41-3.54-.47-.68-.78-1.29-.7-2.12.36-3.58.77-7.18.82-10.78.2-16.42-2.45-39.16-15.29-50.85-6.73-6.12-14.07-5.45-20.79-.13-1.5,1.18-1.47,2.42-2.86.09-1.16-1.95-2.16-3.93-3.48-5.79-2.53-3.56-2.34-3.73-5.97-6.21-4.62-3.16-9.76-4.82-13.41-9.26-4.99-6.07-10.45-17.17-14.36-23.88-1.31-2.25-2.82-4.39-4.39-6.46-1.4-1.85-2.41-4.68-4.85-5.31-1.46-.38-2.9-1-4.42-1.05-1.62-.06-3.25.39-4.6,1.28-1.95,1.29-3.38,3.34-3.28,5.75.15,3.53,3.26,7.39,4.95,10.38,2.16,3.83,4.36,7.63,6.65,11.38,4.7,7.66,9.25,13.57,8.87,22.83-.07,1.69.21,5.22.58,6.88,2.67,11.73,9.59,21.8,15.14,32.29,6.01,11.35,12.07,22.65,18.51,33.79,2.39,4.13,4.94,8.19,7.12,12.41,1.06,2.04,2.19,4.04,3.28,6.06.34.63,1.52,2.06,1.52,2.8-.95,4.84-1.95,9.64-2.26,14.21-.21,3.15-.1,11.51-.5,11.57-2.62.42-6.05-.41-10.89-1.41-4.84-1-7.62-3.25-7.84-3.48-.05-.06,3.2-25.4-9.61-38.59-8.48-8.73-19.75-10.07-21.35-5.68-.51,2.22-.43,8.25-2.83,14.46-2.17,5.59-6.4,14.98-10.59,19.34-.01-.09-.07-.19-.05-.28.18-1.38-2.16-4.31-4.53-5.22.49-1.07,1.78-3.3.88-7.03-.9-3.73-5.06-5.58-7.69-8.51-3.15-3.5-22.12-28.56-28.81-44.96-.72-1.77-1.21-13.26-2.75-17.5-1.54-4.23-9.14-6.65-14.78-5.37-7.63,1.73-13.37,9.68-13.76,12.78-3.94-3.11-19.71-1.14-25.22,4.38-5.52,5.52-8.67,14-8.77,17.64-6.8.22-11.2,1.43-15.89,6.7-4.29,4.82-7.21,14-3.1,19.68,4.32,5.98,20.45,10.48,27.8,18.47,6.77,7.36,21.38,27.26,26.48,34.73.33.48,2.61,9.03,11.42,9.49.31,1.9,1.03,3.36,3.19,4.34-2.41,1.2-4.93,2.02-8.8,2.15-6.36.2-10.44-2.76-16.12-4.57-3.61-1.15-5.6-2.14-7.58,2-4.3,10.1-.03,22.27,6.76,30.06,5.42,6.16,12.96,9.98,20.67,12.27,6.99,2.2,4.56,9.53,3.53,14.89-1.2,5.95-2.39,11.92-3.6,17.89-.52,2.36-1.18,4.67-2.22,6.88-.76,1.45-1.79,4,.7,4.23,2.24.12,4.46-.58,6.71-.34,2.06-.02,4.03-.7,5.87-1.58.87-.42,4.1-3.02,4.83-1.66.27.5,0,1.11-.26,1.62-1.18,2.27-2.41,4.41-3.96,6.46-.57.59-1.13,1.18-1.72,1.76-1.35,1.52-3.46,2.5-2.87,4.07.88,1.2,2.89,1.39,4.28,1.79,3.31.81,6.69,1.57,10.11,1.27,2.47-.19,4.94-.42,7.4-.68,3.49,2.56-6.16,6.29-5.2,8.61.44,1.06,4,1.24,4.85,1.32,5.27.56,13.88-.16,18.85-1.88,2.97-1.03,5.77-2.58,8.76-3.56,3.22,6.08,6.42,12.1,10.38,17.81,3.5,5.09,7.69,9.67,12.02,14.27,22.41,21.3,56.29,31.28,86.75,31.15,24.32-1.47,48.57-5.5,71.25-14.65,37.18-14.77,72.84-40.06,93.49-74.42,10.24-16.62,15.24-35.6,18.52-54.71.61-8.14.6-16.33.25-24.48,0-23.58-5.2-47.03-4.79-70.66ZM269.62,98.8c-7.14-3.77-8.6-15.5.48-17.57,6.12-1.36,14.16,3.28,14.42,9.8v.13c.31,7.33-9.06,11.24-14.9,7.64ZM293.68,73.01l-.09.1c-1.95,2.25-4.99,1.92-7.28.42-8.28-5.23-12.64-17.22-8.44-26.42,1.47-3.13,4.93-5.84,8.46-5.41,5.59,1.05,7.26,8.44,9.14,13.3.93,2.99,2.2,5.05,2.29,7.9-.03,3.39-1.88,7.29-4.08,10.1ZM422.69,106.25c.03,5.53-.31,11.01-2.12,14.81l-.05.09c-4.65,8.09-11.82-9.02-13.55-13.66-2.52-6.64-7.14-22.97.09-26.54,3.35-.97,6.65,1.87,8.94,4.68,4.48,5.66,6.59,13.42,6.69,20.62ZM320.88,32.58l-.02.13c-.43,2.68-6.03,9.57-8.87,9.91-2.27-.09-2.3-2.9-3.54-5.17-1.33-2.81-3.18-5.34-4.97-7.87-1.07-1.59-2.41-3.53-2.24-5.45.86-4.68,8.13-5.89,11.84-3.44,1.93,1.12,3.43,2.97,4.72,4.79,1.62,2.29,3.47,4.64,3.08,7.11ZM394.6,34.8c-2.42,1.14-4.65,2.69-6.53,4.59-3.56-3.21-8.06-5.37-12.79-6.11-.82-.13-1.71-.25-2.32-.82-.43-.4-.65-.97-.85-1.52-2.04-5.47-3.42-16.18-10.09-17.68-2.19-.49-4.52,0-6.16,1.59-.76.74-1.36,1.69-1.63,2.72-.31,1.22-.18,2.5-.07,3.73.1,1.18.21,2.36.49,3.51.18.75.42,1.49.62,2.21-4.08.93-10.53-1.05-14.11-3.13-5.19-3.02-8.35-8.53-12.64-12.74,9.75-1.44,19.61-2.8,29.44-2.03,9.83.78,19.75,3.86,27.15,10.37-1.28.94-2.63,1.95-3.22,3.42-.9,2.23.32,4.93,2.35,6.24,2.02,1.31,4.62,1.44,6.98.99,2.25-.43,4.44-1.34,6.73-1.3,2.29.04,4.82,1.5,4.97,3.79-2.88.18-5.71.92-8.32,2.15ZM402.11,52.79c2.66-2.91,6.42.11,8.43,2.38,5.19,5.71,8.95,12.62,10.2,20.49.11.96.91,5.4-.69,4.64-.89-.48-2.39-3.04-3.96-5.12-1.7-2.27-3.68-4.43-5.93-6.08-2.49-2.04-6.09-2.68-8.03-4.76l-.08-.09c-2.35-2.56-2.09-8.97.06-11.45ZM395.3,135.42c.5-1.68,1.02-3.35,1.49-5.02,1.33-4.52,2.04-12.59,6.3-5.16,3.4,5.56,6.87,11.14,10.22,16.72.96,1.67,1.78,3.43,2.23,5.3.74,2.92.5,6.16.19,9.34-.19,1.2-.42,6.65-1.93,5.32-.98-1-2.65-5.44-4.28-7.45-3.87-5.22-9.52-8.76-13.41-14-1.47-2.05-.96-2.8-.81-4.99,0-.02,0-.04,0-.06ZM386.47,181.65c0-5.56.49-7.57,1.45-12.97.04-.21.08-.45.13-.7.54-2.36,1.18-4.69,1.89-7,.39-1.24.8-2.48,1.22-3.71,3.29,2.53,10.88,9.46,11.82,10.67,5.11,6.96,10.09,15.46,9.63,24.35,0,1.27.02,2.57.14,3.85.11,2.45,1.24,5.22-.14,7.1-2.35,1.72-6.73-4.17-8.97-5.27-2.83-2.03-6.26-3.18-9.11-5.02-1.92-1.22-3.72-2.61-5.46-4.06-2.78-1.68-2.59-4.45-2.59-7.24ZM249.41,153.98c-6.92-6.97-13.77-19.97-9.55-29.1,1.08-2.21,2.72-4.05,4.37-5.87-.46.82.06,9.28.06,10.43.27,1.5.96,5.29,2.8,3.56.28-6.49-1.9-14.87,5.85-17.68.29-.06,5.06-1.16,5.06-.44-.73,4.05-1.68,9.53-.28,13.23,2.47,5.4,2.18-4.97,2.87-6.31,2-7.06,9.39-.64,11.46,3.06,2,3.25,2.31,7.08,2.55,11,.43,9.24.67,19.39,6.97,26.63,4.12,4.65,8.57,9.01,12.38,13.93,3.43,3.93,6.49,6.99,8.38,11.54-2.06-.39-4.24-1.06-6.36-.73-4.14.93-3.16,5.8-.15,7.56,4.97,3.41,10.84,5.33,16.79,6.31,1.7.32,3.84.33,5.14,1.48.9,1-.57,1.87-1.46,2.14-3.97,1.23-8.29.78-12.34,1.62-4.96.14-16.69,1.3-8.04,7.94,3.01,2.01,4.96,2.53,8.44,3.64.58.24,1.59.36,1.67,1.06,0,.42-.38.91-.67,1.29-1.17,1.48-2.41,2.68-3.34,4.03-.49.76-1.09,1.59-2.09,1.55-2.32-.09-3.15-.54-5.09-1.7-1.89-1.09-3.67-2.35-5.39-3.67-2.69-2.06-4.89-3.13-5.8-6.55-1.36-5.12,1.26-4.49,3.06-7.91,1.58-2.99-.35-6.16-1.62-8.89-1.46-3.12-3.18-6.13-5.31-8.84-3.63-4.62-9.02-9-15.05-9.69-.22-.03-.44-.02-.65-.03,2.06,4.42,4.95,10.02,5.67,15.03.42,2.06.57,5.23-.15,6.25-2.56-1.05-5.07-2.05-7.28-3.81-4.5-3.73-7.75-9.16-9.07-14.74-.83-3.58-.89-9.05,3.34-10.31,2.68-.78,6.54.51,10.14,1.78,4.01,1.37,8.01,3.06,11.82,4.86.51-.77.89-1.4.35-2.62-4.48-4.77-9.98-9.73-15.61-12.74-4.9-2.71-9.84-4.35-13.87-8.3ZM294.73,313.13c2.16,3.66,4.33,7.32,6.49,10.97,2.01,3.39,4.01,6.78,6.17,10.08,1.94,2.97,3.99,5.86,6.15,8.67,1.07,1.39-.93,1.69-1.89,2.13-1.24.56-2.19,1.6-2.95,2.73-.75,1.11-1.27,2.38-2.07,3.45-2.07-2.11-3.55-5.61-5.13-8.15-1.87-3-3.71-6.01-5.36-9.13-1.5-2.82-2.86-5.82-4.52-8.58-1.42-2.35-3.06-4.54-5.21-6.32-2.73-2.26-6-3.68-9.02-5.48-3.02-1.81-5.27-4.12-7.36-6.91-4.38-5.85-3.5-14.46-3.83-21.33.36-2.94.93-5.86,1.6-8.71.68-2.86,4.81-6.54,7.25-7.99.97-.57,2.12-.91,3.22-.7.46.09.91.28,1.23.63.23.26.37.59.51.91,3.24,7.65,7.02,15.05,10.25,22.7.49,1.15.98,2.31,1.39,3.49.86,2.49,1.37,5.09,1.52,7.72.08,1.45-.37,2.88-.38,4.3,0,2.03.93,3.82,1.94,5.52ZM192.62,128.15c.37-.97,1.03-1.91,1.66-2.73,1.3-1.69,2.97-3.1,4.87-4.09,1.73-.9,3.78-1.43,5.88-1.55,4.16-.24,8.5,1.16,10.87,4.62,2.73,3.98,4.86,8.35,6.63,12.84,1.71,4.33,3.17,8.63,3.6,13.3.68,7.31.96,14.46.87,21.8,0,.73.25,4.53-.74,4.72-.61.12-1.26-1.47-1.48-1.87-.87-1.57-1.53-3.27-2.44-4.8-1.34-2.26-3.39-4.12-5.48-5.69-4.5-3.36-9.72-5.54-14.67-8.13-.27-.14-.55-.29-.8-.47-2.09-1.49-4.88-5.26-2.56-7.58,1.44-1.44,3.61-2.01,5.49-2.62,2.64-.86,5.42-1.26,8.17-1-.15-.28-.66-.98-1.1-1.55-1.32-.6-2.74-1-4.15-1.26-2.85-.51-5.88-.43-8.64.45-.28.09-.51.05-.69-.07-.56.23-1.1.48-1.61.78-1.46.84-1.92-2.36-2.14-3.15-.17-.6-.33-1.24-.19-1.85.14-.66.61-1.21,1.13-1.65,1.14-.98,2.55-1.58,3.95-2.13,1.2-.47,2.44-.91,3.73-.89,1.91.03,3.58,1.08,5.02,2.23.57.45,1.17,1.32,1.95,1.31,3.01-.03-.95-4.65-1.74-5.24-.57-.42-1.19-.77-1.81-1.12-.41-.23-.83-.46-1.27-.65-2.2-.94-4.85-.62-7.15-.31-1.78.24-3.81.52-5.42,1.38-.04.02.13-2.64.27-3.02ZM183.15,167.91c-7.66-11.36-15.28-22.64-20.63-35.33-1.62-3.84-3.17-7.87-4.05-11.95-.91-4.21-1.12-8.04-1.91-12.27-1.22-6.52-5.03-11.89-7.93-17.64-1.92-3.8-3.97-7.53-6-11.26-.93-1.71-1.73-3.5-2.58-5.25-.8-1.64-1.88-2.88-2.95-4.32-.85-1.14-1.39-2.77-.57-3.93.38-.54,1-.86,1.6-1.13,1.63-.72,3.72-1.06,5.45-.31,2.23.97,2.95,3.57,4.13,5.49,1.66,2.7,3.37,5.37,5.01,8.09,2.52,4.17,4.97,8.39,7.45,12.59,2.14,3.63,4.14,8.45,7.25,11.35,3.64,3.39,9.1,4.49,13.06,7.65,2.86,2.28,5.35,5.03,7.33,8.11,2.36,3.67,2.95,5.97,1.61,10.17-1.03,3.22-.28,5.97.5,9.21,1.39,5.76,3.44,11.36,6.08,16.67,2.55,5.11,7.27,7.77,11.49,11.38,6.22,5.32,11.99,10.9,15.72,18.23,2.88,5.67,5.77,11.34,8.65,17.02,1.63,3.21,3.51,6.57,3.85,10.2.4,4.29-1,8.63-1.95,12.76-1.09,4.72-1.8,9.52-2.31,14.34-.39,3.62,1.24,11.57-1.65,14.19-.55-.28-.8-.7-1.09-1.23,0-1.65-2.7-4.93-3.51-6.41l-3.81-6.95c-2.25-4.12-4.51-8.23-6.81-12.32-5.24-9.31-9.94-18.91-14.85-28.39-5.1-9.86-10.39-19.6-16.56-28.75ZM70.74,246.48c-2.87-1.5-1.79-4.67-3.27-6.69-1.48-2.02-3.5-4.76-4.45-6.12-24.46-35.1-27.51-33.89-39.78-39.21-12.5-5.42-12.91-12.65-10.62-17.62,4.71-10.2,14.34-9.14,14.34-9.14,0,0,.24,5.35.53,6.15,4.45,12.12,29.95,25.74,30.61,24.88.96-1.26-12.88-10.63-15.34-13.07-11.28-11.17-12.02-19.22-7.81-28.39,4.21-9.17,9.47-12.69,18.48-12.75,4.29-.03,8.36,1.69,10.53,5.23,2.25,3.66,15.57,26.94,17.07,26.06,1.49-.88-11.3-22.29-13.42-28.38-2.12-6.09.91-9.85,4.95-12.89,4.05-3.03,12.1-2.89,14.63,3.04,2.05,4.8.86,11.98,2.32,15.93,1.47,3.94,23.73,38.22,33.46,52.02,2.11,3.31.59,7.71-3.43,10.64-4.02,2.94-9.16,3.24-12.63.31-3.47-2.93-13.63-21.44-14.94-20.64-1.3.8,8.11,14.89,8.74,21.77.03.29.83,4.05-2.17,6.83-2.99,2.78-6.98,3.11-7.66,3.15-7.59.42-17.69-15.22-19.27-13.75-1.58,1.47,12.34,13.77,13.43,22.27.36,4.92-1.84,8.2-6.46,10.65-1.62.86-5.18,1.11-7.83-.28ZM415.93,271.31c-1.3,7,.27,13.82-2.03,20.8-.44,1.34-.96,2.65-1.55,3.93-4.68,4.82-9.4,9.62-14.17,14.36-13.81,12.91-20.63,20.94,4.01,15.82-2.26,4.13-4.91,8.1-7.37,12.13-4.96.95-10,.88-15.02.6-5.62-.32-11.36-.7-16.99-1.08-1.82-.12-3.6-1.5-4.94.82-1.44,2.48,6,5.11,7.83,6.08,5.54,2.47,11.37,4.01,17.37,4.94,1.77.29,3.31.99,1.66,3.34-1.45,2.01-2.74,2.41-4.62,4.09-2.71,2.33-5.32,5.16-8.25,7.37-1.37,1-2.69,2.08-4,3.16-2.57,2.27-6.43,7.63-9.63,8.86-6.01,2.3-10.95,1.95-16.48-2.37-6.33-4.62-11.11-11-15.45-17.49-1.32-1.73-4.31-6.21-5.14-2.05-.43,2.54.05,5.94.58,8.65,1.94,10.78,7.57,20.17,13.76,28.96-.29.26-.75.63-1.15.72-6.04,3.21-12.29,5.96-18.6,8.72-2.34,1.03-6.47,2.94-7.74-.37-.65-1.94-.17-4.23-.08-6.27.33-4.26-.47-8.55-1.54-12.68-4.35-13.3-14.03-24.04-21.33-35.73-3.35-5.37-5.84-11.25-8.49-16.96-.69-1.39-2.16-2.25-3.21-1.65-.28.97-.63,1.91-1.05,2.81.06,1.17.44,2.38.73,3.47,2.42,8.42,5.56,16.31,9.31,24.27,3.8,8,7.43,16.14,8.42,25.03.76,7.33-.01,18.55-3.99,24.78-4.58,6.37-13.42,3.11-18.76-.79-8.05-5.55-10.93-14.89-11.49-24.27-.1-6.57.97-13.13,2.35-19.54.33-1.4,1.64-3.99.79-5.41-.91-1.53-1.17-1.28-2.01-.07-4.79,6.95-8.48,22-9.52,30.48-1.03,8.37-1.09,18.18,2.98,25.77-1.61.09-2.22.81-3.92,1.15-8.49,1.68-18.01.56-26.52-.58-4.04-.54-15.25-1.81-18.45-3.09-6.14-2.46-8.86-10.28-12.11-15.47-1.01-1.62-1.92-2.94-2.7-4.25-2.55-4.31-4.34-8.82-5.92-13.57-1.5-4.09-2.48-14.45-8.99-11.78-2.83,1.7-3.73,6.08-4.07,9.1-.45,4.4,1.92,8.88,1.72,13.39,0,2.34-.42,5.35-2.78,6.49-2.36.55-4.24-2.97-5.11-4.63-2.44-4.9-3.44-10.47-4.13-15.85-.25-4.15.08-8.44,1.17-12.4.46-1.67,1.76-11.15-2.13-7.73-3.09,2.72-5.74,5.94-7.82,9.48-1.08,1.83-2.01,3.75-2.77,5.74-.74,1.59-1.54,3.97-3.57,4.13-2.5-.19-3.78-3.87-3.6-6.2.58-3.05,1.75-6.68,4.06-8.85,1.57-1.48,3.14-2.95,4.76-4.39.89-.96,9.24-7.32,5.1-7.24-1.93.03-6.74,1.88-9.92,2.95-4.99,1.65-10.08,2.98-15.16,4.34-2.39.91-4.64,2.06-7.1,2.78-3.56.86-7.19,1.49-10.78,2.18-2.31.45-4.71.46-7.04.8,9.73-13.58-2.4-10.5-12.04-9.97-.65,0-4.98-.63-5.27-.26,2.87-3.69,7.39-8.69,7.12-13.4-.67-5.01-6.38-1.61-8.87.19-2.66,1.63-6.17,2.69-9.28,2.82-.33.01-.48.47-.88-.29.44-.4.92-.79,1.19-1.34,1.91-3.88,2.08-5.16,2.61-9.18,1.23-9.36,2.63-18.53,3.42-27.93.68-8.12-.19-16.44-1.87-24.11-.44-2.03-1.14-4.01-1.99-5.9-.23-.52-.49-1.05-.9-1.43-.91-.84-2.69-.39-3.82-.37-1.55.02-3.1,0-4.65-.14-3.13-.23-6.35-1.05-9.2-.66-6.33,1.03-4.6,6.51-1.22,10.04,1.34,1.49,10.04,7.66,19.63,10.46,0,1.31.32,3.56.64,5.8-1.76-.34-11.41-3.63-13.03-4.54-8.48-4.8-14.98-13.15-17-22.73-.46-2.2-.79-4.56-.68-6.82.07-1.37.16-3.4,1.62-4.05,1.15-.52,2.58.27,3.61.76,5.02,2.03,10.49,3.74,15.84,5.05,1.33.25,2.51.09,3.83.09,2.69-.3,5.47-1.12,7.99-2.09,2.22-.86,4.34-1.99,6.18-3.5,2.03-1.67,4.09-3.43,5.79-5.43,1.54-1.82,2.6-4.09,4.54-5.55.95-.72,2.06-1.19,3.16-1.66,1.01-.43,2.02-.86,3.06-1.21,1.43-.5,3.58.02,2.48,1.98-.29.52-.76.92-1.22,1.3-2.31,1.91-4.65,3.8-6.58,6.09-1.93,2.29-4.34,7.69-3.75,8.01.59.32,4.36-4.47,6.6-6.66,2.56-2.5,4.98-5.21,8.02-7.1,1.1-.68,2.21.77,3.13,1.76-2.38,2.94-6.23,6.92-8.88,10.19-5.81,7.2-9.12,16.27-7.88,16.97.8.38,2.94-4.79,4.11-6.57,1.96-3.55,5.32-7.67,8.44-10.17,2.61-2.08,5.35-3.98,8.93-3.88,2.9.08,5.01,1.89,6.74,3.76,1.84,1.99,3.8,5.12,5.4,5.37.28-1.17-1.66-5.91-3.31-8.5-.79-1.24-1.67-2.63-1.96-4.09-.24-1.23-.69-6.02,9.53-9.56,3.94-1.36,10.65-3,15.91-3.47-1.34-1.29-5.94-1.43-8.33-1.44-13.38-.01-20.57,6.23-21.49,6.99-.24-.82-1.4-3.13-1.33-3.37.12-.42,6.09-6.12,12.24-8.37,4.02-1.47,10.88-2.06,15.13-2.17-.31-.76-4.8-1.61-8-1.61-9.47,0-18.09,5.83-19.56,6.77-.44-1.2,1.84-5.42,5.38-7.85,3.54-2.43,10.61-5.23,11.42-5.8,1.63-1.14,2.99-2.63,4.15-4.25.66-.92,4.85-9.47,5.66-10.84,5.12-8.62,4.8-20.86,5.36-22.7,4-1.68,12.76,2.68,15.59,5.56,12.44,12.64,10.81,36.28,8.99,36.41-.32.02-1.18-.33-1.37-.58-.1-.05-.48-13.4-4.91-21.71-2.28-4.27-7.88-12.5-10.2-9.93-2.16,2.4-3.6,15.19-9.43,25.59-.17.29,17.76,10.36,23.42,11.78,7.5,1.88,22.76,6.63,35.97,2.78,1.14,2.01-2.41,12.19-8.32,16.46,3.03-.11,8.44-1.56,11.19-2.94,1.36-.68,3.56-2.2,4.86-3.24.82,1,1.82,5.95,1.93,6.82.31,4.18-.86,7.74-3.6,11.02-1.08,1.57-3.07,2.77-3.63,4.61-.07.98,1.11,1.42,1.95,1.59,2.65.59,5.47-.31,7.7-1.82.71-.42,1.6-1.22,2.39-.71.94.83,1.03,2.49,1.28,3.69.54,3.67-.23,7.45-1.43,10.97-1.93,5.7-5.23,10.81-8.14,16.03-5.44,9.75-25.42,29.38-25.42,29.38-2.25,2.21-5.15,3.88-7.47,6.07-2.37,2.22-4.57,4.62-6.59,7.16-3.99,5.04-7.21,10.69-9.43,16.73-3.2,8.73-5.16,19.78-1.78,28.72-.21-.56,1.1-.37,1.26-.53.44-.43.09-1.57.05-2.19-.7-9.66.78-20.03,4.73-28.92,2.57-5.79,6.43-11.09,11.43-15.01,5.88-4.6,12.78-5.94,20.04-6.77,3.8-.43,7.61-.72,11.4-1.2,6.2-.46,12.57.06,18.32,2.54,3.89,1.63,7.69,3.97,10.75,4.76,8.22,2.03,5.06-6.41,1.16-9.76-9.48-8.13-21.1-10.4-33.34-9.72-1.59.09-4.02-.08-2.88-2.16.9-1.62,2.6-2.87,3.89-4.16,6.31-6.3,9.77-14.61,13.97-22.3.86-1.25,2.26-1.34,3.6-.89,3.58,1.22,7.31,2.35,10.99,3.31,4.28,1.26,6.59-.93,2.8-4.31-4.12-4.04-6.35-9.65-8.61-14.89-.5-1.44-.26-2.23-.11-3.71.35-3.42,1.49-6.76,1.85-10.2.85-8.28,1.25-16.62,2.82-24.81,1.06-5.51,2.07-11.18,4.63-16.23,2.87-5.67,8.02-8.65,13.43-11.6.56-.31,1.4-1.05,1.78-.43.25.41-.42,1.79-.58,2.18-.59,1.48-1.48,2.82-2.12,4.28-1.71,3.88-2.82,7.7-1.83,11.93.07.3,1.04-3.07,1.2-3.52.49-1.32,1.03-2.63,1.65-3.9,1.21-2.48,2.71-4.87,4.76-6.73,1.55-1.42,5.06-3.9,7.34-3.34.98.24,4.6,2.98,4.75,4.02-4.14,1.12-7.5,4.71-10.01,8.04-1.61,2.14-4.51,7.02-3.16,9.67,1.39,2.75,1.58-1.86,1.85-2.71,1.54-4.83,6.1-8.96,10.32-11.52,2.61-1.58,2.92-2.01,4.85.77,3.14,5.34.13,4.85-3.29,7.95-2.01,1.72-7.69,8.02-6.11,10.34.21.07.39-.03.6-.18.81-.63,1.38-1.61,2-2.48,1.5-2.2,3.53-4,5.47-5.86,1.47-.84,3.08-1.39,3.9.55,1.23,2.59,1.48,7.63,1.9,10.98-.4,6.46-4.45,13.01-7.76,18.4-4.84,7.89-10.71,15.14-17.7,21.23-1.19,1.04-5.15,6.17-1.22,4.76,2.03-.73,3.44-2.69,5.33-3.67.28.96-.3,1.97-.43,2.96-.18,1.34.02,2.82.08,4.16.13,3.01.38,6.01.75,9,.58,4.7,1.49,9.48.81,14.22-2.22,15.35-7.23,30.26-14.82,43.79-2.89,5.15-5.87,10.84-12.44,11.34-6.5.49-13.2-3.59-18.68-6.54-1.78-.95-3.43-2.15-4.86-3.58-3.42-3.36-4.9-8.3-8.87-11.16-6.28-4.26-11.75.61-10.09,7.62,1.58,7.63,7.9,12.16,14.66,15.07,5.12,2.21,10.4,4.03,15.68,5.82,2.65.9,5.3,1.78,7.93,2.71,1.37.48,5.92,1.28,6.46,2.93l-1.13,11.69c-1.23-.17-2.65.19-3.78.17-8.59-.52-13.09-3.75-18.5-10.03-2.24-1.65-5.34-1.71-7.64-.16-5.16,3.59-3.76,8.42.22,12.34,6.43,6.78,15.76,8.91,24.7,9.76.46.17.87.52,1.17.92,2.27,2.88,4.62,5.66,7.32,8.13.55.42,1.18,1.37,1.99,1.01.48-.25.62-.99.39-1.5-1.12-1.7-2.33-3.31-2.63-5.39-.93-6.8.98-13.45,3.37-19.75,2.9-8.28,7.09-16.03,10.96-23.9,3.65-7.42,6.46-15.11,9.84-22.63,3.44-7.65,7-14.88,7.74-23.33,1.49,1.52,3.22,2.61,5.16,3.49,5.77,2.61,10.4,5.64,13.91,10.94,4.33,6.54,8.49,13.21,12.83,19.74,3.3,4.98,7.68,10.95,13.6,5.24.82-.79,1.64-1.6,2.22-2.58,2.92-4.99-3.65-11.02-6.09-14.83-3.09-4.83-6.18-9.66-9.27-14.49-1.58-2.46-3.17-4.97-4.02-7.76-1.06-3.51-.89-7.25-.72-10.91.2-4.13.59-7.48-.9-11.37-.29-.76.89-1.19,1.27-.54,1.67,2.84,2.74,5.95,4.26,8.87,1.56,2.98,3.33,5.85,5.31,8.57,4.99,6.88,11.36,13.08,18.5,17.7,3.96,2.56,8.07,5.14,12.21,7.22,2.23,1.2,7.43,3.27,4.78.12-2.17-2.35-4.98-4.52-7.53-6.78-3.67-2.59-7.06-5.54-10.43-8.49-4.9-4.25-9.39-8.99-13.63-13.89-.46-.53-.99-1.15-.95-1.88.04-.67,4.64,3.14,4.93,3.44,1.68,1.75,3.19,3.66,4.91,5.37,1.65,1.64,3.54,3.13,5.72,3.98,1.74.67,4.92,1.66,6.39-.03,3.08-3.52-6.15-7.6-8.2-9.1-4.7-3.44-6.97-8.73-10.11-13.45-3.36-4.06-7.83-7.12-11.4-11-2.68-2.79-4.48-6.25-6.08-9.74-1.22-2.63-2.26-5.62-2.12-8.53.26-3.6,2.18-1.63,3.65.47,1.39,2.48,2.55,5.08,4.06,7.49,2.76,4.05,6.18,7.54,9.96,10.65,6.58,5.59,13.69,10.71,22.4,11.35,7.61.26,15.48-2.7,20.89-8.11,2.87-3.07,4.61-6.98,5.84-10.95.18-2.87-2.28-4.27-4.76-4.81-4.96,3.63-10.39,6.44-16.66,6.91-3.13-.4-6.22-1.38-9.1-2.66-8.29-3.69-14.76-11.6-18.53-19.7-2.85-7.09-4.58-14.6-5.45-22.19-.29-2.47-.22-5.11.91-7.32,1.44-2.99,4.17-3.46,5.67-.16,5.83,14.54,12.14,26.52,29.27,28.43,3.12.18,6.18-.09,9.27-.39,4.36-.43,2.47-1.66-.35-3.14-3.76-1.96-7.64-3.7-11.61-5.19-1.75-.66-3.53-1.27-5.12-2.25-6.11-3.83-14.62-16.51-8.15-23.16,2.63-2.68,6.84-3.89,10.47-2.87,6.89,1.99,8.03,8.45,10.02,14.39,1.72,4.8,8.35,10.59,13.17,10.2,2.37-.89-1.71-4.99-2.43-6.32-.79-1.15-1.48-2.38-1.98-3.64-2-5.38.62-7.44,5.61-4.75,2.93,2.45,5.64,5.12,9.16,6.68-.07-.28-.16-.59-.21-.87-3.6-3.07-6.18-7.03-10.08-9.77-5.66-3.87-11.24-7.85-16.51-12.2-1.42-1.34-7.25-5.19-5.74-7.32,1.08-1.28,5.58-.99,7.89-1.62,4.46-1.13,3.73-4.87.96-7.59-7.22-5.93-15.42-10.65-23.21-15.77-8.35-5.49-12.12-18.46-13.14-27.84-.43-3.94-.11-8.06,1.27-11.8.61-1.65,1.55-4.18,2.97-5.33,3.27-2.62,2.44,2.05,2.71,4.22.36,2.87.99,8.36,3.33,10.18.38.3.12-4.01.11-4.25-.19-2.29-.28-4.53-.04-6.82.46-4.33,1.83-8.58,4.06-12.33.87-1.47,3.05-1.69,4.58-1.74,2.73-.09,3.35-.02,3.25,2.39-.26,5.83-2.91,10.27-.29,16.21.37.84.69,1.48,1.54,1.85.96-2.36.24-6.29.82-9.04.68-3.19,1.88-6.26,3.58-9.05.47-.77.99-1.53,1.72-2.06,5.34-3.85,13.85,5.42,15.41,9.76,2.16,5.97.57,12.55-.72,18.77-2.3,11.1.5,18.82,6.56,28.13,2.61,3.34,5.33,6.36,7.54,9.63,1.94,1.6-2.8,1.84-3.55,1.97-3.04.53-6.25,1.26-8.49,3.55-2.88,3.13-.98,7.59,2.5,9.64,1.71,1.1,3.65,1.76,5.57,2.42,6.09,1.4,12.25,3.87,18.45,4.58,3.68.43,7.5-.07,11.08,1.08,4.17,1.3,7.53,4.29,11.04,6.78,3.89,2.71,7.67,5.58,10.02,9.74,2.08,5.11,1.37,11.23,1.57,16.62-4.9-8.01-11.93-17.87-22.28-17.02-7.19.64-13.23,5.2-19.12,9.07-1.44.51-4.45-.21-5.02,1.48,0,.03-.01.05-.02.08,3.8,2.79,8.8,3.72,13.39,2.58,2.99-.7,5.55-2.51,8.48-3.14,8.11-1.6,12.74,6.94,15.01,13.42,1.8,5.08,3.84,10.7,7.8,14.53.77.75,2.44,1.13,2.49,1.3.55,1.6-.93,4.42-1.22,5.99Z"/>
  </g>
</svg>